; OM File Header - Saved 2018/04/06 10:29:15
; (6.1301 :patc (om-make-point 230 10) (om-make-point 50 50) (om-make-point 1005 817) "" 183 0 nil "2018/04/06 10:29:15")
; End File Header
; External resources 
; (list (list (quote :picture) "#P\"../../../resources/pict/FOF_chant\""))
(in-package :om)(load-lib-for (quote ("OM-Chant")))(setf *om-current-persistent* (om-load-patch1 "04-basic-fof-audio" (quote ((let ((box (om-load-boxcall (quote bastype) "aux 7" (quote t) (quote nil) (om-make-point 502 355) (om-make-point 52 30) 110.0 "110.0" nil))) (when (fboundp (quote set-active)) (set-active box nil)) box) (let ((box (om-load-boxcall (quote bastype) "aux 13" (quote t) (quote nil) (om-make-point 322 261) (om-make-point 45 30) 0.02 "0.02" nil))) (when (fboundp (quote set-active)) (set-active box nil)) box) (let ((box (om-load-boxcall (quote bastype) "aux 12" (quote t) (quote nil) (om-make-point 349 286) (om-make-point 52 30) 0.007 "0.007" nil))) (when (fboundp (quote set-active)) (set-active box nil)) box) (let ((box (om-load-boxcall (quote bastype) "aux 11" (quote t) (quote nil) (om-make-point 285 286) (om-make-point 52 30) 0.003 "0.003" nil))) (when (fboundp (quote set-active)) (set-active box nil)) box) (let ((box (om-load-editor-box1 "PICTURE" (quote picture) (quote ((om-load-inputfun (quote input-funbox) "object" "self" nil) (om-load-inputfun (quote input-funbox) "main background: external picture pathname or RGB array" "background" nil) (om-load-inputfun (quote input-funbox) "list of vectorial graphics" "graphics" nil))) (om-make-point 484 1) (om-make-point 488 305) (make-instance (quote picture) :name "FOF_chant" :source (quote user) :pict-pathname (restore-pict-path (restore-path nil)) :thepict (om-get-picture "FOF_chant" (quote user)) :storemode :external :draw-params (quote (p 0 0 100 100)) :extraobjs nil) nil nil (pairlis (quote (winpos winsize)) (list (om-make-point 10 40) (om-make-point 1262 834))) t nil nil nil))) (when (fboundp (quote set-active)) (set-active box nil)) box) (let ((box (om-load-boxcall (quote bastype) "aux 10" (quote t) (quote nil) (om-make-point 267 153) (om-make-point 33 30) (quote lin) "lin" nil))) (when (fboundp (quote set-active)) (set-active box nil)) box) (let ((box (om-load-boxcall (quote bastype) "aux 8" (quote t) (quote nil) (om-make-point 201 150) (om-make-point 47 30) (list (quote b) (quote a)) "(b a)" nil))) (when (fboundp (quote set-active)) (set-active box nil)) box) (let ((box (om-load-boxcomment "comment 2" (om-make-point 90 36) (quote "Value of the f0$(audio)") "" (om-make-point 514 317) nil (om-make-color 0 0 0) (om-make-font "Verdana" 10.0 :family "Verdana" :style (quote (:plain)) :mode (quote nil))))) (when (fboundp (quote set-active)) (set-active box nil)) box) (let ((box (om-load-boxcall (quote genfun) "VOWEL-FORMANTS" (quote vowel-formants) (quote ((om-load-inputfunmenu1 (quote input-funmenu) "a sung vowel" "VOWEL" (list (quote a) (quote i)) (list (list "Alto A" (list (quote list) (quote (quote a)) (quote (quote a)))) (list "Alto E" (list (quote list) (quote (quote a)) (quote (quote e)))) (list "Alto I" (list (quote list) (quote (quote a)) (quote (quote i)))) (list "Alto O" (list (quote list) (quote (quote a)) (quote (quote o)))) (list "Alto U" (list (quote list) (quote (quote a)) (quote (quote u)))) (list "Bass A" (list (quote list) (quote (quote b)) (quote (quote a)))) (list "Bass E" (list (quote list) (quote (quote b)) (quote (quote e)))) (list "Bass I" (list (quote list) (quote (quote b)) (quote (quote i)))) (list "Bass O" (list (quote list) (quote (quote b)) (quote (quote o)))) (list "Bass U" (list (quote list) (quote (quote b)) (quote (quote u)))) (list "Countertenor A" (list (quote list) (quote (quote c)) (quote (quote a)))) (list "Countertenor E" (list (quote list) (quote (quote c)) (quote (quote e)))) (list "Countertenor I" (list (quote list) (quote (quote c)) (quote (quote i)))) (list "Countertenor O" (list (quote list) (quote (quote c)) (quote (quote o)))) (list "Countertenor U" (list (quote list) (quote (quote c)) (quote (quote u)))) (list "Soprano A" (list (quote list) (quote (quote s)) (quote (quote a)))) (list "Soprano E" (list (quote list) (quote (quote s)) (quote (quote e)))) (list "Soprano I" (list (quote list) (quote (quote s)) (quote (quote i)))) (list "Soprano O" (list (quote list) (quote (quote s)) (quote (quote o)))) (list "Soprano U" (list (quote list) (quote (quote s)) (quote (quote u)))) (list "Tenor A" (list (quote list) (quote (quote t)) (quote (quote a)))) (list "Tenor E" (list (quote list) (quote (quote t)) (quote (quote e)))) (list "Tenor I" (list (quote list) (quote (quote t)) (quote (quote i)))) (list "Tenor O" (list (quote list) (quote (quote t)) (quote (quote o)))) (list "Tenor U" (list (quote list) (quote (quote t)) (quote (quote u)))))) (om-load-inputfunmenu1 (quote input-funmenu) "amplitude units" "AMP" (quote lin) (list (list "dB" (quote (quote db))) (list "linear" (quote (quote lin))))))) (om-make-point 198 187) nil nil nil nil 4))) (when (fboundp (quote set-active)) (set-active box nil)) box) (let ((box (om-load-boxcall (quote bastype) "aux 5" (quote t) (quote nil) (om-make-point 422 354) (om-make-point 27 30) 0 "0" nil))) (when (fboundp (quote set-active)) (set-active box nil)) box) (let ((box (om-load-boxcomment "comment" (om-make-point 63 53) (quote "duration of the F0 \"event\"") "" (om-make-point 459 302) nil (om-make-color 0 0 0) (om-make-font "Verdana" 10.0 :family "Verdana" :style (quote (:plain)) :mode (quote nil))))) (when (fboundp (quote set-active)) (set-active box nil)) box) (let ((box (om-load-boxcomment "comment" (om-make-point 68 53) (quote "onset time of the F0 \"event\"") "" (om-make-point 401 300) nil (om-make-color 0 0 0) (om-make-font "Verdana" 10.0 :family "Verdana" :style (quote (:plain)) :mode (quote nil))))) (when (fboundp (quote set-active)) (set-active box nil)) box) (let ((box (om-load-boxcomment "comment" (om-make-point 65 56) (quote "onset time of the FOF \"event\"") "" (om-make-point 90 203) nil (om-make-color 0 0 0) (om-make-font "Verdana" 10.0 :family "Verdana" :style (quote (:plain)) :mode (quote nil))))) (when (fboundp (quote set-active)) (set-active box nil)) box) (let ((box (om-load-boxcomment "comment" (om-make-point 66 48) (quote "durantion of the FOF \"event\"") "" (om-make-point 153 227) nil (om-make-color 0 0 0) (om-make-font "Verdana" 10.0 :family "Verdana" :style (quote (:plain)) :mode (quote nil))))) (when (fboundp (quote set-active)) (set-active box nil)) box) (let ((box (om-load-boxcall (quote bastype) "aux 4" (quote t) (quote nil) (om-make-point 120 259) (om-make-point 27 30) 0 "0" nil))) (when (fboundp (quote set-active)) (set-active box nil)) box) (let ((box (om-load-boxcomment "comment" (om-make-point 71 36) (quote "number of formants") "" (om-make-point 35 270) nil (om-make-color 0 0 0) (om-make-font "Verdana" 10.0 :family "Verdana" :style (quote (:plain)) :mode (quote nil))))) (when (fboundp (quote set-active)) (set-active box nil)) box) (let ((box (om-load-boxcomment "comment" (om-make-point 297 90) (quote "\"Patch 0\" is the simplest CHANT configuration.$Parameters to specify are the values of a $undamental freq. (f0) and of the different$formants of the FOFs.$Here the f0 has an audio value.") "" (om-make-point 191 32) nil (om-make-color 0 0 0) (om-make-font "Verdana" 12 :family "Verdana" :style (quote (:plain)) :mode (quote nil))))) (when (fboundp (quote set-active)) (set-active box nil)) box) (let ((box (om-load-boxcall (quote genfun) "CHANT-PATCH" (quote chant-patch) (quote ((om-load-inputfunmenu1 (quote input-funmenu) "CHANT modules" "MODULES" nil (list (list "0  - FOF" 0) (list "1  - FOF + NOISE => FILTER" 1) (list "2  - NOISE + SOUND => FILTER" 2) (list "3  - FOF + NOISE + SOUND => FILTER" 3) (list "4  - NOISE => FILTER" 4) (list "5  - SOUND => FILTER" 5) (list "6  - FOF => FILTER" 6) (list "7  - FOF + SOUND => FILTER" 7) (list "8  - FOF + [NOISE + SOUND => FILTER]" 8) (list "9  - FOF + [NOISE => FILTER]" 9) (list "10 - FOF + [SOUND => FILTER]" 10))))) (om-make-point 98 63) nil nil nil nil 1))) (when (fboundp (quote set-active)) (set-active box nil)) box) (let ((box (om-load-boxcomment "comment" (om-make-point 175 31) (quote "The basic CHANT sound") "" (om-make-point 193 12) nil (om-make-color 0 0 0) (om-make-font "Verdana" 12 :family "Verdana" :style (quote (:bold)) :mode (quote nil))))) (when (fboundp (quote set-active)) (set-active box nil)) box) (let ((box (om-load-boxcall (quote bastype) "aux 6" (quote t) (quote nil) (om-make-point 426 527) (om-make-point 116 30) "04_ch-basic-fof" "\"04_ch-basic-fof\"" nil))) (when (fboundp (quote set-active)) (set-active box nil)) box) (let ((box (om-load-boxcall (quote bastype) "aux 3" (quote t) (quote nil) (om-make-point 91 285) (om-make-point 21 30) 5 "5" nil))) (when (fboundp (quote set-active)) (set-active box nil)) box) (let ((box (om-load-boxcall (quote bastype) "aux 2" (quote t) (quote nil) (om-make-point 163 272) (om-make-point 27 30) 2 "2" nil))) (when (fboundp (quote set-active)) (set-active box nil)) box) (let ((box (om-load-boxcall (quote bastype) "aux" (quote t) (quote nil) (om-make-point 464 354) (om-make-point 27 30) 2 "2" nil))) (when (fboundp (quote set-active)) (set-active box nil)) box) (let ((box (om-load-boxcall (quote lispfun) "LIST" (quote list) (quote ((om-load-inputfun (quote input-funbox) "add-input" "add-input" (quote a)) (om-load-inputfun (quote input-funbox) "add-input" "add-input" (quote a)))) (om-make-point 266 479) (om-make-point 101 41) nil nil nil 1))) (when (fboundp (quote set-active)) (set-active box nil)) box) (let ((box (om-load-editor-box1 "CH-F0" (quote ch-f0) (quote ((om-load-inputfun (quote input-funbox) "object" "self" nil) (om-load-inputfun (quote input-funbox) "start time [sec]" "action-time" 0) (om-load-inputfun (quote input-funbox) "duration [sec]" "dur" 0) (om-load-inputfun (quote input-funbox) "fundamental frequency value(s) [Hz]" "f0" 110.0))) (om-make-point 415 394) (om-make-point 96 62) (if (find-class (quote ch-f0) nil) (let ((newobj (make-instance (quote ch-f0) :action-time 0 :dur 2 :f0 110.0 :from-file t))) (load-port-info newobj (quote nil)) (init-mus-color newobj (quote nil)) (set-extra-pairs newobj (quote nil)) (set-patch-pairs newobj (quote nil)) (set-name newobj nil) (set-tonalite newobj nil) newobj)) nil nil (pairlis (quote (palette-mode scale show-stems obj-mode score-mode winpos winsize mode grillestep notechancolor? zoom player inport outport deltapict cmnpref staff fontsize approx)) (list 0 nil (quote t) 1 0 (om-make-point 400 20) (om-make-point 370 280) 0 1000 nil 1 (quote :midishare) 0 nil (om-make-point 0 0) (let ((newobj (make-instance (quote edition-values)))) (setf (paper-size newobj) (om-make-point 600 800)) (setf (top-margin newobj) 2) (setf (left-margin newobj) 1) (setf (right-margin newobj) 1) (setf (bottom-margin newobj) 1) (setf (orientation newobj) nil) (setf (scale newobj) nil) (setf (system-space newobj) (quote (1))) (setf (system-color newobj) (quote nil)) (setf (line-space newobj) 1) (setf (title newobj) nil) (setf (show-title? newobj) nil) (setf (show-page? newobj) nil) (setf (sheet-id newobj) nil) (setf (page-mode newobj) nil) newobj) (quote g) 24 2)) t nil nil t))) (when (fboundp (quote set-active)) (set-active box nil)) box) (let ((box (om-load-editor-box1 "" (quote sound) (quote ((om-load-inputfun (quote input-funbox) "object" "self" nil) (om-load-inputfun (quote input-funbox) "a track index for multichannel mixing" "tracknum" 1) (om-load-inputfun (quote input-funbox) "a list of markers (s)" "markers" nil))) (om-make-point 105 630) (om-make-point 267 83) (let ((newobj nil)) (load-port-info newobj (quote nil)) (init-mus-color newobj (quote nil)) (set-extra-pairs newobj (quote nil)) (set-patch-pairs newobj (quote nil)) (set-name newobj "") (set-tonalite newobj nil) newobj) nil nil (pairlis (quote (palette-mode scale show-stems obj-mode score-mode winpos winsize mode grillestep notechancolor? zoom player inport outport deltapict cmnpref staff fontsize approx)) (list 0 nil (quote t) 1 0 (om-make-point 329 128) (om-make-point 1111 664) 0 1000 nil 1 (quote :libaudio) 0 nil (om-make-point 0 0) (let ((newobj (make-instance (quote edition-values)))) (setf (paper-size newobj) (om-make-point 600 800)) (setf (top-margin newobj) 2) (setf (left-margin newobj) 1) (setf (right-margin newobj) 1) (setf (bottom-margin newobj) 1) (setf (orientation newobj) nil) (setf (scale newobj) nil) (setf (system-space newobj) (quote (1))) (setf (system-color newobj) (quote nil)) (setf (line-space newobj) 1) (setf (title newobj) nil) (setf (show-title? newobj) nil) (setf (show-page? newobj) nil) (setf (sheet-id newobj) nil) (setf (page-mode newobj) nil) newobj) (quote g) 24 2)) t nil nil nil))) (when (fboundp (quote set-active)) (set-active box nil)) box) (let ((box (om-load-boxcall (quote genfun) "SYNTHESIZE" (quote synthesize) (quote ((om-load-inputfun (quote input-funbox) "something to synthesize..." "ELEMENTS" nil) (om-load-inputkeyword (quote input-keyword) "" "name" (quote :name) nil nil))) (om-make-point 366 566) nil nil nil nil 1))) (when (fboundp (quote set-active)) (set-active box nil)) box) (let ((box (om-load-editor-box1 "CH-FOF" (quote ch-fof) (quote ((om-load-inputfun (quote input-funbox) "synthesis event" "self" nil) (om-load-inputfun (quote input-funbox) "number of components (FOFs)" "numcols" 1) (om-load-inputfun (quote input-funbox) "start time [sec]" "action-time" 0) (om-load-inputfun (quote input-funbox) "duration [sec]" "dur" 0) (om-load-inputfun (quote input-funbox) "control period [sec]" "kt" nil) (om-load-inputfun (quote input-funbox) "lambda function applied to each component" "user-fun" nil) (om-load-inputkeyword (quote editor-keyword) "" "freq" (quote :freq) 609.0 nil) (om-load-inputkeyword (quote editor-keyword) "!! Only linear [0.0 -> 1.0]" "amp" (quote :amp) 1.0 nil) (om-load-inputkeyword (quote editor-keyword) "" "bw" (quote :bw) 77.0 nil) (om-load-inputkeyword (quote editor-keyword) "attack time(s) of the FOFs [sec]" "win" (quote :win) 0.003 nil) (om-load-inputkeyword (quote editor-keyword) "duration(s) of the FOFs [sec]" "wdur" (quote :wdur) 0.02 nil) (om-load-inputkeyword (quote editor-keyword) "decay time(s) of the FOFs [sec]" "wout" (quote :wout) 0.007 nil))) (om-make-point 29 333) (om-make-point 368 97) (let ((copy (if (find-class (quote ch-fof) nil) (let ((rep (make-instance (quote ch-fof) :numcols 5))) (when (member (quote freq) (get-init-slots-of-class (quote ch-fof)) :key (quote car)) (setf (slot-value rep (quote freq)) (list 600 1040 2250 2450 2750))) (when (member (quote amp) (get-init-slots-of-class (quote ch-fof)) :key (quote car)) (setf (slot-value rep (quote amp)) (list 1.0 0.4466836 0.3548134 0.3548134 0.1))) (when (member (quote bw) (get-init-slots-of-class (quote ch-fof)) :key (quote car)) (setf (slot-value rep (quote bw)) (list 60 70 110 120 130))) (when (member (quote win) (get-init-slots-of-class (quote ch-fof)) :key (quote car)) (setf (slot-value rep (quote win)) 0.003)) (when (member (quote wdur) (get-init-slots-of-class (quote ch-fof)) :key (quote car)) (setf (slot-value rep (quote wdur)) 0.02)) (when (member (quote wout) (get-init-slots-of-class (quote ch-fof)) :key (quote car)) (setf (slot-value rep (quote wout)) 0.007)) (when (member (quote phs) (get-init-slots-of-class (quote ch-fof)) :key (quote car)) (setf (slot-value rep (quote phs)) 0)) (setf (lcontrols rep) (list)) (setf (action-time rep) 0) (setf (data rep) (list (list 600 1040 2250 2450 2750) (list 1.0 0.4466836 0.3548134 0.3548134 0.1) (list 60 70 110 120 130) (list 0.003 0.003 0.003 0.003 0.003) (list 0.02 0.02 0.02 0.02 0.02) (list 0.007 0.007 0.007 0.007 0.007) (list 0 0 0 0 0))) rep)))) (when copy (setf (dur copy) (quote 2)) (setf (kt copy) nil)) copy) nil nil (pairlis (quote (winpos winsize color-list show-opt-fields cur-group-ind panel-list)) (list (om-make-point 10 40) (om-make-point 978 784) (list (om-make-color 0 0 0) (om-make-color 0 0 0) (om-make-color 0 0 0) (om-make-color 0 0 0) (om-make-color 0 0 0) (om-make-color 0 0 0) (om-make-color 0 0 0)) (quote t) 0 (list (list "All open" (list 0 (quote t)) (list 1 (quote t)) (list 2 (quote t)) (list 3 (quote t)) (list 4 (quote t)) (list 5 (quote t)) (list 6 (quote t))) (list "All close" (list 0 nil) (list 1 nil) (list 2 nil) (list 3 nil) (list 4 nil) (list 5 nil) (list 6 nil))))) nil nil nil t))) (when (fboundp (quote set-active)) (set-active box nil)) box))) (quote ((6 0 8 0 nil 0) (5 0 8 1 nil 0) (27 0 23 0 nil 0) (24 0 23 1 nil 0) (9 0 24 1 nil 0) (22 0 24 2 nil 0) (0 0 24 3 nil 0) (26 0 25 0 nil 0) (23 0 26 0 nil 0) (19 0 26 1 nil 0) (20 0 27 1 nil 0) (14 0 27 2 nil 0) (21 0 27 3 nil 0) (8 1 27 6 nil 0) (8 2 27 7 nil 0) (8 3 27 8 nil 0) (3 0 27 9 nil 0) (1 0 27 10 nil 0) (2 0 27 11 nil 0))) nil 6.1301))