; OM File Header - Saved 2019/07/30 23:53:27
; (6.15 :patc (om-make-point 565.193359375D0 10) (om-make-point 201 343) (om-make-point 678 712) "" 183 0 nil "2019/07/30 18:18:13")
; End File Header
; External resources 
; (list (list (quote :sound) "#P\"../../out-files/04-ch-basic-fof.aiff.aiff\""))
(in-package :om)(load-lib-for (quote ("OM-Chant")))(setf *om-current-persistent* (om-load-patch1 "04-basic-fof" (quote ((let ((box (om-load-boxcall (quote genfun) "VOWEL-FORMANTS" (quote vowel-formants) (quote ((om-load-inputfunmenu1 (quote input-funmenu) "a sung vowel" "VOWEL" (list (quote a) (quote a)) (list (list "Alto A" (list (quote list) (quote (quote a)) (quote (quote a)))) (list "Alto E" (list (quote list) (quote (quote a)) (quote (quote e)))) (list "Alto I" (list (quote list) (quote (quote a)) (quote (quote i)))) (list "Alto O" (list (quote list) (quote (quote a)) (quote (quote o)))) (list "Alto U" (list (quote list) (quote (quote a)) (quote (quote u)))) (list "Bass A" (list (quote list) (quote (quote b)) (quote (quote a)))) (list "Bass E" (list (quote list) (quote (quote b)) (quote (quote e)))) (list "Bass I" (list (quote list) (quote (quote b)) (quote (quote i)))) (list "Bass O" (list (quote list) (quote (quote b)) (quote (quote o)))) (list "Bass U" (list (quote list) (quote (quote b)) (quote (quote u)))) (list "Countertenor A" (list (quote list) (quote (quote c)) (quote (quote a)))) (list "Countertenor E" (list (quote list) (quote (quote c)) (quote (quote e)))) (list "Countertenor I" (list (quote list) (quote (quote c)) (quote (quote i)))) (list "Countertenor O" (list (quote list) (quote (quote c)) (quote (quote o)))) (list "Countertenor U" (list (quote list) (quote (quote c)) (quote (quote u)))) (list "Soprano A" (list (quote list) (quote (quote s)) (quote (quote a)))) (list "Soprano E" (list (quote list) (quote (quote s)) (quote (quote e)))) (list "Soprano I" (list (quote list) (quote (quote s)) (quote (quote i)))) (list "Soprano O" (list (quote list) (quote (quote s)) (quote (quote o)))) (list "Soprano U" (list (quote list) (quote (quote s)) (quote (quote u)))) (list "Tenor A" (list (quote list) (quote (quote t)) (quote (quote a)))) (list "Tenor E" (list (quote list) (quote (quote t)) (quote (quote e)))) (list "Tenor I" (list (quote list) (quote (quote t)) (quote (quote i)))) (list "Tenor O" (list (quote list) (quote (quote t)) (quote (quote o)))) (list "Tenor U" (list (quote list) (quote (quote t)) (quote (quote u)))))))) (om-make-point 187 220) nil nil nil nil 4))) (when (fboundp (quote set-active)) (set-active box nil)) box) (let ((box (om-load-boxcomment "comment" (om-make-point 86 24) (quote "Value of the f0") "" (om-make-point 562 267) nil (om-make-color 0 0 0) (om-make-font "Verdana" 10.0 :family "Verdana" :style (quote (:plain)) :mode (quote nil))))) (when (fboundp (quote set-active)) (set-active box nil)) box) (let ((box (om-load-boxcall (quote bastype) "aux 7" (quote t) (quote nil) (om-make-point 560 294) (om-make-point 46 30) 110.0 "110.0" nil))) (when (fboundp (quote set-active)) (set-active box nil)) box) (let ((box (om-load-boxcall (quote bastype) "aux 5" (quote t) (quote nil) (om-make-point 471 294) (om-make-point 21 30) 0 "0" nil))) (when (fboundp (quote set-active)) (set-active box nil)) box) (let ((box (om-load-boxcomment "comment" (om-make-point 63 53) (quote "duration of the F0 \"event\"") "" (om-make-point 493 239) nil (om-make-color 0 0 0) (om-make-font "Verdana" 10.0 :family "Verdana" :style (quote (:plain)) :mode (quote nil))))) (when (fboundp (quote set-active)) (set-active box nil)) box) (let ((box (om-load-boxcomment "comment" (om-make-point 68 53) (quote "onset time of the F0 \"event\"") "" (om-make-point 431 240) nil (om-make-color 0 0 0) (om-make-font "Verdana" 10.0 :family "Verdana" :style (quote (:plain)) :mode (quote nil))))) (when (fboundp (quote set-active)) (set-active box nil)) box) (let ((box (om-load-boxcomment "comment" (om-make-point 65 56) (quote "onset time of the FOF \"event\"") "" (om-make-point 90 163) nil (om-make-color 0 0 0) (om-make-font "Verdana" 10.0 :family "Verdana" :style (quote (:plain)) :mode (quote nil))))) (when (fboundp (quote set-active)) (set-active box nil)) box) (let ((box (om-load-boxcomment "comment" (om-make-point 66 48) (quote "durantion of the FOF \"event\"") "" (om-make-point 153 187) nil (om-make-color 0 0 0) (om-make-font "Verdana" 10.0 :family "Verdana" :style (quote (:plain)) :mode (quote nil))))) (when (fboundp (quote set-active)) (set-active box nil)) box) (let ((box (om-load-boxcall (quote bastype) "aux 4" (quote t) (quote nil) (om-make-point 131 219) (om-make-point 21 30) 0 "0" nil))) (when (fboundp (quote set-active)) (set-active box nil)) box) (let ((box (om-load-boxcomment "comment" (om-make-point 71 36) (quote "number of formants") "" (om-make-point 35 230) nil (om-make-color 0 0 0) (om-make-font "Verdana" 10.0 :family "Verdana" :style (quote (:plain)) :mode (quote nil))))) (when (fboundp (quote set-active)) (set-active box nil)) box) (let ((box (om-load-boxcomment "comment" (om-make-point 278 71) (quote "\"Patch 0\" is the simplest CHANT configuration. Parameters to specify are the values of a fundamental freq. (f0) and of the different formants of the FOFs") "" (om-make-point 191 48) nil (om-make-color 0 0 0) (om-make-font "Verdana" 12 :family "Verdana" :style (quote (:plain)) :mode (quote nil))))) (when (fboundp (quote set-active)) (set-active box nil)) box) (let ((box (om-load-boxcall (quote genfun) "CHANT-PATCH" (quote chant-patch) (quote ((om-load-inputfunmenu1 (quote input-funmenu) "CHANT modules" "MODULES" nil (list (list "0  - FOF" 0) (list "1  - FOF + NOISE => FILTER" 1) (list "2  - NOISE + SOUND => FILTER" 2) (list "3  - FOF + NOISE + SOUND => FILTER" 3) (list "4  - NOISE => FILTER" 4) (list "5  - SOUND => FILTER" 5) (list "6  - FOF => FILTER" 6) (list "7  - FOF + SOUND => FILTER" 7) (list "8  - FOF + [NOISE + SOUND => FILTER]" 8) (list "9  - FOF + [NOISE => FILTER]" 9) (list "10 - FOF + [SOUND => FILTER]" 10))))) (om-make-point 101 57) nil nil nil nil 1))) (when (fboundp (quote set-active)) (set-active box nil)) box) (let ((box (om-load-boxcomment "comment" (om-make-point 175 31) (quote "The basic CHANT sound") "" (om-make-point 193 12) nil (om-make-color 0 0 0) (om-make-font "Verdana" 12 :family "Verdana" :style (quote (:bold)) :mode (quote nil))))) (when (fboundp (quote set-active)) (set-active box nil)) box) (let ((box (om-load-boxcomment "comment" (om-make-point 181 38) (quote "Select some of the predefined formant values (freq, amp, bw)") "" (om-make-point 256 188) nil (om-make-color 0 0 0) (om-make-font "Verdana" 10.0 :family "Verdana" :style (quote (:plain)) :mode (quote nil))))) (when (fboundp (quote set-active)) (set-active box nil)) box) (let ((box (om-load-boxcall (quote bastype) "aux 6" (quote t) (quote nil) (om-make-point 420 433) (om-make-point 137 30) "ch_04-basic-fof.aiff" "\"ch_04-basic-fof.aiff\"" nil))) (when (fboundp (quote set-active)) (set-active box nil)) box) (let ((box (om-load-boxcall (quote bastype) "aux 3" (quote t) (quote nil) (om-make-point 109 239) (om-make-point 21 30) 5 "5" nil))) (when (fboundp (quote set-active)) (set-active box nil)) box) (let ((box (om-load-boxcall (quote bastype) "aux 2" (quote t) (quote nil) (om-make-point 153 238) (om-make-point 21 30) 4 "4" nil))) (when (fboundp (quote set-active)) (set-active box nil)) box) (let ((box (om-load-boxcall (quote bastype) "aux" (quote t) (quote nil) (om-make-point 494 294) (om-make-point 21 30) 4 "4" nil))) (when (fboundp (quote set-active)) (set-active box nil)) box) (let ((box (om-load-boxcall (quote lispfun) "LIST" (quote list) (quote ((om-load-inputfun (quote input-funbox) "add-input" "add-input" (quote a)) (om-load-inputfun (quote input-funbox) "add-input" "add-input" (quote a)))) (om-make-point 296 419) (om-make-point 101 41) nil nil nil 1))) (when (fboundp (quote set-active)) (set-active box nil)) box) (let ((box (om-load-editor-box1 "CH-F0" (quote ch-f0) (quote ((om-load-inputfun (quote input-funbox) "object" "self" nil) (om-load-inputfun (quote input-funbox) "start time [sec]" "action-time" 0) (om-load-inputfun (quote input-funbox) "duration [sec]" "dur" 0) (om-load-inputfun (quote input-funbox) "fundamental frequency value(s) [Hz]" "f0" 110.0))) (om-make-point 445 334) (om-make-point 96 62) (if (find-class (quote ch-f0) nil) (let ((newobj (make-instance (quote ch-f0) :action-time 0 :dur 4 :f0 110.0 :from-file t))) (load-port-info newobj (quote nil)) (init-mus-color newobj (quote nil)) (set-extra-pairs newobj (quote nil)) (set-patch-pairs newobj (quote nil)) (set-name newobj nil) (set-tonalite newobj nil) newobj)) nil nil (pairlis (quote (palette-mode scale show-stems obj-mode score-mode winpos winsize mode grillestep notechancolor? zoom player inport outport deltapict cmnpref staff fontsize approx)) (list 0 nil (quote t) 1 0 (om-make-point 400 20) (om-make-point 370 280) 0 1000 nil 1 (quote :midishare) 0 nil (om-make-point 0 0) (let ((newobj (make-instance (quote edition-values)))) (setf (paper-size newobj) (om-make-point 600 800)) (setf (top-margin newobj) 2) (setf (left-margin newobj) 1) (setf (right-margin newobj) 1) (setf (bottom-margin newobj) 1) (setf (orientation newobj) nil) (setf (scale newobj) nil) (setf (system-space newobj) (quote (1))) (setf (system-color newobj) (quote nil)) (setf (line-space newobj) 1) (setf (title newobj) nil) (setf (show-title? newobj) nil) (setf (show-page? newobj) nil) (setf (sheet-id newobj) nil) (setf (page-mode newobj) nil) newobj) (quote g) 24 2)) t nil nil t))) (when (fboundp (quote set-active)) (set-active box nil)) box) (let ((box (om-load-editor-box1 "04-ch-basic-fof.aiff.aiff" (quote sound) (quote ((om-load-inputfun (quote input-funbox) "object" "self" nil) (om-load-inputfun (quote input-funbox) "a track index for multichannel mixing" "tracknum" 1) (om-load-inputfun (quote input-funbox) "a list of markers (s)" "markers" nil))) (om-make-point 209 558) (om-make-point 267 83) (let ((newobj (let ((thesound (load-sound (om-make-pathname :directory (quote (:relative "out-files")) :device :unspecific :host nil :name "04-ch-basic-fof.aiff" :type "aiff") 1 1.0 0))) (when thesound (setf (markers thesound) (quote nil))) thesound))) (load-port-info newobj (quote nil)) (init-mus-color newobj (quote nil)) (set-extra-pairs newobj (quote nil)) (set-patch-pairs newobj (quote nil)) (set-name newobj "04-ch-basic-fof.aiff.aiff") (set-tonalite newobj nil) newobj) nil nil (pairlis (quote (palette-mode scale show-stems obj-mode score-mode winpos winsize mode grillestep notechancolor? zoom player inport outport deltapict cmnpref staff fontsize approx)) (list 0 nil (quote t) 1 0 (om-make-point 329 128) (om-make-point 1111 664) 0 1000 nil 1 (quote :libaudio) 0 nil (om-make-point 0 0) (let ((newobj (make-instance (quote edition-values)))) (setf (paper-size newobj) (om-make-point 600 800)) (setf (top-margin newobj) 2) (setf (left-margin newobj) 1) (setf (right-margin newobj) 1) (setf (bottom-margin newobj) 1) (setf (orientation newobj) nil) (setf (scale newobj) nil) (setf (system-space newobj) (quote (1))) (setf (system-color newobj) (quote nil)) (setf (line-space newobj) 1) (setf (title newobj) nil) (setf (show-title? newobj) nil) (setf (show-page? newobj) nil) (setf (sheet-id newobj) nil) (setf (page-mode newobj) nil) newobj) (quote g) 24 2)) t nil nil nil))) (when (fboundp (quote set-active)) (set-active box nil)) box) (let ((box (om-load-boxcall (quote genfun) "SYNTHESIZE" (quote synthesize) (quote ((om-load-inputfun (quote input-funbox) "something to synthesize..." "ELEMENTS" nil) (om-load-inputkeyword (quote input-keyword) "" "name" (quote :name) nil nil))) (om-make-point 396 476) nil nil nil nil 1))) (when (fboundp (quote set-active)) (set-active box nil)) box) (let ((box (om-load-editor-box1 "CH-FOF" (quote ch-fof) (quote ((om-load-inputfun (quote input-funbox) "synthesis event" "self" nil) (om-load-inputfun (quote input-funbox) "number of components (FOFs)" "numcols" 1) (om-load-inputfun (quote input-funbox) "start time [sec]" "action-time" 0) (om-load-inputfun (quote input-funbox) "duration [sec]" "dur" 0) (om-load-inputfun (quote input-funbox) "control period [sec]" "kt" nil) (om-load-inputfun (quote input-funbox) "lambda function applied to each component" "user-fun" nil) (om-load-inputkeyword (quote editor-keyword) "" "freq" (quote :freq) 609.0 nil) (om-load-inputkeyword (quote editor-keyword) "!! Only linear [0.0 -> 1.0]" "amp" (quote :amp) 1.0 nil) (om-load-inputkeyword (quote editor-keyword) "" "bw" (quote :bw) 77.0 nil))) (om-make-point 76 276) (om-make-point 206 61) (let ((copy (if (find-class (quote ch-fof) nil) (let ((rep (make-instance (quote ch-fof) :numcols 5))) (when (member (quote freq) (get-init-slots-of-class (quote ch-fof)) :key (quote car)) (setf (slot-value rep (quote freq)) (list 800 1150 2800 3500 4950))) (when (member (quote amp) (get-init-slots-of-class (quote ch-fof)) :key (quote car)) (setf (slot-value rep (quote amp)) (list 1.0 0.63095737 0.1 0.015848933 0.001))) (when (member (quote bw) (get-init-slots-of-class (quote ch-fof)) :key (quote car)) (setf (slot-value rep (quote bw)) (list 80 90 120 130 140))) (when (member (quote win) (get-init-slots-of-class (quote ch-fof)) :key (quote car)) (setf (slot-value rep (quote win)) 0.003)) (when (member (quote wdur) (get-init-slots-of-class (quote ch-fof)) :key (quote car)) (setf (slot-value rep (quote wdur)) 0.02)) (when (member (quote wout) (get-init-slots-of-class (quote ch-fof)) :key (quote car)) (setf (slot-value rep (quote wout)) 0.007)) (when (member (quote phs) (get-init-slots-of-class (quote ch-fof)) :key (quote car)) (setf (slot-value rep (quote phs)) 0)) (setf (lcontrols rep) (list)) (setf (action-time rep) 0) (setf (data rep) (list (list 800 1150 2800 3500 4950) (list 1.0 0.63095737 0.1 0.015848933 0.001) (list 80 90 120 130 140) (list 0.003 0.003 0.003 0.003 0.003) (list 0.02 0.02 0.02 0.02 0.02) (list 0.007 0.007 0.007 0.007 0.007) (list 0 0 0 0 0))) rep)))) (when copy (setf (dur copy) (quote 4)) (setf (kt copy) nil)) copy) nil nil (pairlis (quote (winpos winsize color-list show-opt-fields cur-group-ind panel-list)) (list (om-make-point 10 40) (om-make-point 978 784) (list (om-make-color 0 0 0) (om-make-color 0 0 0) (om-make-color 0 0 0) (om-make-color 0 0 0) (om-make-color 0 0 0) (om-make-color 0 0 0) (om-make-color 0 0 0)) (quote t) 0 (list (list "All open" (list 0 (quote t)) (list 1 (quote t)) (list 2 (quote t)) (list 3 (quote t)) (list 4 (quote t)) (list 5 (quote t)) (list 6 (quote t))) (list "All close" (list 0 nil) (list 1 nil) (list 2 nil) (list 3 nil) (list 4 nil) (list 5 nil) (list 6 nil))))) nil nil nil t))) (when (fboundp (quote set-active)) (set-active box nil)) box))) (quote ((22 0 18 0 nil 0) (19 0 18 1 nil 0) (3 0 19 1 nil 0) (17 0 19 2 nil 0) (2 0 19 3 nil 0) (21 0 20 0 nil 0) (18 0 21 0 nil 0) (14 0 21 1 nil 0) (15 0 22 1 nil 0) (8 0 22 2 nil 0) (16 0 22 3 nil 0) (0 1 22 6 nil 0) (0 2 22 7 nil 0) (0 3 22 8 nil 0))) nil 6.15))
