; OM File Header - Saved 2019/07/31 18:24:18
; (6.15 :patc (om-make-point 717.2578125D0 10) (om-make-point 881 177) (om-make-point 899 764) "" 183 0 nil "2019/07/30 18:18:27")
; End File Header
; External resources 
; (list (list (quote :sound) "#P\"../../out-files/04b_ch-basic-fof-subaudio.aiff\""))
(in-package :om)(load-lib-for (quote ("OM-Chant")))(setf *om-current-persistent* (om-load-patch1 "04b-fof-sub-audio" (quote ((let ((box (om-load-boxcall (quote bastype) "aux 14" (quote t) (quote nil) (om-make-point 82 155) (om-make-point 324 30) (list 523.2511 830.6094 1174.659 1567.9817 2217.4612) "(523.2511 830.6094 1174.659 1567.9817 2217.4612)" nil))) (when (fboundp (quote set-active)) (set-active box nil)) box) (let ((box (om-load-boxcomment "comment 5" (om-make-point 112 75) (quote "Change WOUT$to observe$the single FOF's$decay.") "" (om-make-point 449 377) nil (om-make-color 0 0 0) (om-make-font "Verdana" 12 :family "Verdana" :style (quote (:plain)) :mode (quote nil))))) (when (fboundp (quote set-active)) (set-active box nil)) box) (let ((box (om-load-boxcall (quote bastype) "aux 13" (quote t) (quote nil) (om-make-point 466 345) (om-make-point 45 30) 0.99 "0.99" nil))) (when (fboundp (quote set-active)) (set-active box nil)) box) (let ((box (om-load-boxcomment "comment 4" (om-make-point 119 90) (quote "Change WDUR$to observe$the single FOF's$duration BEFORE$the decay starts.") "" (om-make-point 423 224) nil (om-make-color 0 0 0) (om-make-font "Verdana" 12 :family "Verdana" :style (quote (:plain)) :mode (quote nil))))) (when (fboundp (quote set-active)) (set-active box nil)) box) (let ((box (om-load-boxcomment "comment 3" (om-make-point 103 75) (quote "Change WIN$to observe$the transient's$shape.") "" (om-make-point 319 266) nil (om-make-color 0 0 0) (om-make-font "Verdana" 12 :family "Verdana" :style (quote (:plain)) :mode (quote nil))))) (when (fboundp (quote set-active)) (set-active box nil)) box) (let ((box (om-load-boxcomment "comment 2" (om-make-point 120 60) (quote "Change BW$to observe$the decay's slope") "" (om-make-point 250 209) nil (om-make-color 0 0 0) (om-make-font "Verdana" 12 :family "Verdana" :style (quote (:plain)) :mode (quote nil))))) (when (fboundp (quote set-active)) (set-active box nil)) box) (let ((box (om-load-boxcall (quote bastype) "aux 11" (quote t) (quote nil) (om-make-point 324 335) (om-make-point 38 30) 0.1 "0.1" nil))) (when (fboundp (quote set-active)) (set-active box nil)) box) (let ((box (om-load-boxcall (quote bastype) "aux 10" (quote t) (quote nil) (om-make-point 428 314) (om-make-point 38 30) 1.0 "1.0" nil))) (when (fboundp (quote set-active)) (set-active box nil)) box) (let ((box (om-load-boxcall (quote bastype) "aux 9" (quote t) (quote nil) (om-make-point 257 265) (om-make-point 38 30) 0.5 "0.5" nil))) (when (fboundp (quote set-active)) (set-active box nil)) box) (let ((box (om-load-boxcall (quote bastype) "aux 8" (quote t) (quote nil) (om-make-point 258 347) (om-make-point 38 30) 1.0 "1.0" nil))) (when (fboundp (quote set-active)) (set-active box nil)) box) (let ((box (om-load-editor-box1 "CHORD" (quote chord) (quote ((om-load-inputfun (quote input-funbox) "object" "self" nil) (om-load-inputfun (quote input-funbox) "pitches (list of midicents)" "lmidic" (list 6000)) (om-load-inputfun (quote input-funbox) "velocities (list of values 0-127)" "lvel" (list 100)) (om-load-inputfun (quote input-funbox) "offsets (list of values in ms)" "loffset" (list 0)) (om-load-inputfun (quote input-funbox) "durations (list of values in ms)" "ldur" (list 1000)) (om-load-inputfun (quote input-funbox) "MIDI channels (list of values 0-16)" "lchan" (list 1)))) (om-make-point 567 259) (om-make-point 98 119) (let ((thechord (make-instance (quote chord) :lmidic (quote (7200 8000 8600 9100 9700)) :ldur (quote (1000 1000 1000 1000 1000)) :lvel (quote (100 100 100 100 100)) :loffset (quote (0 0 0 0 0)) :lchan (quote (1 1 1 1 1))))) (load-port-info thechord (quote (0 0 0 0 0))) (init-mus-color thechord (quote nil)) (set-extra-pairs thechord (quote nil)) (set-tonalite thechord nil) thechord) nil nil (pairlis (quote (approx fontsize staff cmnpref deltapict outport inport player zoom notechancolor? grillestep mode winsize winpos score-mode obj-mode cursor-mode show-stems scale)) (list 4 24 (quote gg) (let ((newobj (make-instance (quote edition-values)))) (setf (paper-size newobj) (om-make-point 600 800)) (setf (top-margin newobj) 2) (setf (left-margin newobj) 1) (setf (right-margin newobj) 1) (setf (bottom-margin newobj) 1) (setf (orientation newobj) nil) (setf (scale newobj) nil) (setf (system-space newobj) (quote (1))) (setf (system-color newobj) (quote nil)) (setf (line-space newobj) 1) (setf (title newobj) nil) (setf (show-title? newobj) nil) (setf (show-page? newobj) nil) (setf (sheet-id newobj) nil) (setf (page-mode newobj) nil) newobj) (om-make-point 0 0) nil nil (quote :midi-player) 1 nil 1000 0 (om-make-point 690 640) (om-make-point 400 23) 0 0 (quote :normal) (quote t) nil)) t nil nil nil))) (when (fboundp (quote set-active)) (set-active box nil)) box) (let ((box (om-load-boxcall (quote genfun) "F->MC" (quote f->mc) (quote ((om-load-inputfun (quote input-funbox) "frequency (Hz)" "FREQ" 440))) (om-make-point 576 204) nil nil nil nil 1))) (when (fboundp (quote set-active)) (set-active box nil)) box) (let ((box (om-load-boxcomment "comment" (om-make-point 90 36) (quote "Value of the f0$(sub-audio)") "" (om-make-point 792 275) nil (om-make-color 0 0 0) (om-make-font "Verdana" 10.0 :family "Verdana" :style (quote (:bold)) :mode (quote nil))))) (when (fboundp (quote set-active)) (set-active box nil)) box) (let ((box (om-load-boxcall (quote bastype) "aux 7" (quote t) (quote nil) (om-make-point 796 314) (om-make-point 38 30) 0.5 "0.5" nil))) (when (fboundp (quote set-active)) (set-active box nil)) box) (let ((box (om-load-boxcall (quote bastype) "aux 5" (quote t) (quote nil) (om-make-point 688 314) (om-make-point 27 30) 0 "0" nil))) (when (fboundp (quote set-active)) (set-active box nil)) box) (let ((box (om-load-boxcomment "comment" (om-make-point 63 53) (quote "duration of the F0 \"event\"") "" (om-make-point 731 261) nil (om-make-color 0 0 0) (om-make-font "Verdana" 10.0 :family "Verdana" :style (quote (:plain)) :mode (quote nil))))) (when (fboundp (quote set-active)) (set-active box nil)) box) (let ((box (om-load-boxcomment "comment" (om-make-point 68 53) (quote "onset time of the F0 \"event\"") "" (om-make-point 669 261) nil (om-make-color 0 0 0) (om-make-font "Verdana" 10.0 :family "Verdana" :style (quote (:plain)) :mode (quote nil))))) (when (fboundp (quote set-active)) (set-active box nil)) box) (let ((box (om-load-boxcomment "comment" (om-make-point 65 56) (quote "onset time of the FOF \"event\"") "" (om-make-point 85 274) nil (om-make-color 0 0 0) (om-make-font "Verdana" 10.0 :family "Verdana" :style (quote (:plain)) :mode (quote nil))))) (when (fboundp (quote set-active)) (set-active box nil)) box) (let ((box (om-load-boxcomment "comment" (om-make-point 66 48) (quote "durantion of the FOF \"event\"") "" (om-make-point 143 291) nil (om-make-color 0 0 0) (om-make-font "Verdana" 10.0 :family "Verdana" :style (quote (:plain)) :mode (quote nil))))) (when (fboundp (quote set-active)) (set-active box nil)) box) (let ((box (om-load-boxcall (quote bastype) "aux 4" (quote t) (quote nil) (om-make-point 110 319) (om-make-point 27 30) 0 "0" nil))) (when (fboundp (quote set-active)) (set-active box nil)) box) (let ((box (om-load-boxcomment "comment" (om-make-point 68 36) (quote "number of$formants") "" (om-make-point 1 320) nil (om-make-color 0 0 0) (om-make-font "Verdana" 10.0 :family "Verdana" :style (quote (:plain)) :mode (quote nil))))) (when (fboundp (quote set-active)) (set-active box nil)) box) (let ((box (om-load-boxcomment "comment" (om-make-point 297 90) (quote "An interesting feature of Chant is the possibility to lower the fundamental frequency to sub-audio frequency values, makeing it possible to separate and hear FOF grains individually. ") "" (om-make-point 77 38) nil (om-make-color 0 0 0) (om-make-font "Verdana" 12 :family "Verdana" :style (quote (:plain)) :mode (quote nil))))) (when (fboundp (quote set-active)) (set-active box nil)) box) (let ((box (om-load-boxcomment "comment" (om-make-point 175 31) (quote "The CHANT bells") "" (om-make-point 76 11) nil (om-make-color 0 0 0) (om-make-font "Verdana" 12 :family "Verdana" :style (quote (:bold)) :mode (quote nil))))) (when (fboundp (quote set-active)) (set-active box nil)) box) (let ((box (om-load-boxcall (quote bastype) "aux 6" (quote t) (quote nil) (om-make-point 692 517) (om-make-point 150 30) "ch_04b-fof-sub-audio" "\"ch_04b-fof-sub-audio\"" nil))) (when (fboundp (quote set-active)) (set-active box nil)) box) (let ((box (om-load-boxcall (quote bastype) "aux 3" (quote t) (quote nil) (om-make-point 69 334) (om-make-point 21 30) 5 "5" nil))) (when (fboundp (quote set-active)) (set-active box nil)) box) (let ((box (om-load-boxcall (quote bastype) "aux 2" (quote t) (quote nil) (om-make-point 146 336) (om-make-point 38 30) 4.0 "4.0" nil))) (when (fboundp (quote set-active)) (set-active box nil)) box) (let ((box (om-load-boxcall (quote bastype) "aux" (quote t) (quote nil) (om-make-point 730 314) (om-make-point 38 30) 4.0 "4.0" nil))) (when (fboundp (quote set-active)) (set-active box nil)) box) (let ((box (om-load-boxcall (quote lispfun) "LIST" (quote list) (quote ((om-load-inputfun (quote input-funbox) "add-input" "add-input" (quote a)) (om-load-inputfun (quote input-funbox) "add-input" "add-input" (quote a)))) (om-make-point 516 499) (om-make-point 101 41) nil nil nil 1))) (when (fboundp (quote set-active)) (set-active box nil)) box) (let ((box (om-load-editor-box1 "CH-F0" (quote ch-f0) (quote ((om-load-inputfun (quote input-funbox) "object" "self" nil) (om-load-inputfun (quote input-funbox) "start time [sec]" "action-time" 0) (om-load-inputfun (quote input-funbox) "duration [sec]" "dur" 0) (om-load-inputfun (quote input-funbox) "fundamental frequency value(s) [Hz]" "f0" 110.0))) (om-make-point 681 354) (om-make-point 96 62) (if (find-class (quote ch-f0) nil) (let ((newobj (make-instance (quote ch-f0) :action-time 0 :dur 4.0 :f0 0.5 :from-file t))) (load-port-info newobj (quote nil)) (init-mus-color newobj (quote nil)) (set-extra-pairs newobj (quote nil)) (set-patch-pairs newobj (quote nil)) (set-name newobj nil) (set-tonalite newobj nil) newobj)) nil nil (pairlis (quote (approx fontsize staff cmnpref deltapict outport inport player zoom notechancolor? grillestep mode winsize winpos score-mode obj-mode show-stems scale palette-mode)) (list 2 24 (quote g) (let ((newobj (make-instance (quote edition-values)))) (setf (paper-size newobj) (om-make-point 600 800)) (setf (top-margin newobj) 2) (setf (left-margin newobj) 1) (setf (right-margin newobj) 1) (setf (bottom-margin newobj) 1) (setf (orientation newobj) nil) (setf (scale newobj) nil) (setf (system-space newobj) (quote (1))) (setf (system-color newobj) (quote nil)) (setf (line-space newobj) 1) (setf (title newobj) nil) (setf (show-title? newobj) nil) (setf (show-page? newobj) nil) (setf (sheet-id newobj) nil) (setf (page-mode newobj) nil) newobj) (om-make-point 0 0) nil 0 (quote :midishare) 1 nil 1000 0 (om-make-point 370 280) (om-make-point 400 20) 0 1 (quote t) nil 0)) t nil nil t))) (when (fboundp (quote set-active)) (set-active box nil)) box) (let ((box (om-load-editor-box1 "04b_ch-basic-fof-subaudio.aiff" (quote sound) (quote ((om-load-inputfun (quote input-funbox) "object" "self" nil) (om-load-inputfun (quote input-funbox) "a track index for multichannel mixing" "tracknum" 1) (om-load-inputfun (quote input-funbox) "a list of markers (s)" "markers" nil))) (om-make-point 544 624) (om-make-point 267 83) (let ((newobj (let ((thesound (load-sound (om-make-pathname :directory (quote (:relative "out-files")) :device :unspecific :host nil :name "04b_ch-basic-fof-subaudio" :type "aiff") 1 1.0 0))) (when thesound (setf (markers thesound) (quote nil))) thesound))) (load-port-info newobj (quote nil)) (init-mus-color newobj (quote nil)) (set-extra-pairs newobj (quote nil)) (set-patch-pairs newobj (quote nil)) (set-name newobj "04b_ch-basic-fof-subaudio.aiff") (set-tonalite newobj nil) newobj) nil nil (pairlis (quote (approx fontsize staff cmnpref deltapict outport inport player zoom notechancolor? grillestep mode winsize winpos score-mode obj-mode show-stems scale palette-mode)) (list 2 24 (quote g) (let ((newobj (make-instance (quote edition-values)))) (setf (paper-size newobj) (om-make-point 600 800)) (setf (top-margin newobj) 2) (setf (left-margin newobj) 1) (setf (right-margin newobj) 1) (setf (bottom-margin newobj) 1) (setf (orientation newobj) nil) (setf (scale newobj) nil) (setf (system-space newobj) (quote (1))) (setf (system-color newobj) (quote nil)) (setf (line-space newobj) 1) (setf (title newobj) nil) (setf (show-title? newobj) nil) (setf (show-page? newobj) nil) (setf (sheet-id newobj) nil) (setf (page-mode newobj) nil) newobj) (om-make-point 0 0) nil 0 (quote :libaudio) 1 nil 1000 0 (om-make-point 1111 664) (om-make-point 329 128) 0 1 (quote t) nil 0)) t nil nil nil))) (when (fboundp (quote set-active)) (set-active box nil)) box) (let ((box (om-load-boxcall (quote genfun) "SYNTHESIZE" (quote synthesize) (quote ((om-load-inputfun (quote input-funbox) "something to synthesize..." "ELEMENTS" nil) (om-load-inputkeyword (quote input-keyword) "" "name" (quote :name) nil nil))) (om-make-point 616 556) nil nil nil nil 1))) (when (fboundp (quote set-active)) (set-active box nil)) box) (let ((box (om-load-editor-box1 "CH-FOF" (quote ch-fof) (quote ((om-load-inputfun (quote input-funbox) "synthesis event" "self" nil) (om-load-inputfun (quote input-funbox) "number of components (FOFs)" "numcols" 1) (om-load-inputfun (quote input-funbox) "start time [sec]" "action-time" 0) (om-load-inputfun (quote input-funbox) "duration [sec]" "dur" 0) (om-load-inputfun (quote input-funbox) "control period [sec]" "kt" nil) (om-load-inputfun (quote input-funbox) "lambda function applied to each component" "user-fun" nil) (om-load-inputkeyword (quote editor-keyword) "" "freq" (quote :freq) 609.0 nil) (om-load-inputkeyword (quote editor-keyword) "!! Only linear [0.0 -> 1.0]" "amp" (quote :amp) 1.0 nil) (om-load-inputkeyword (quote editor-keyword) "" "bw" (quote :bw) 77.0 nil) (om-load-inputkeyword (quote editor-keyword) "attack time(s) of the FOFs [sec]" "win" (quote :win) 0.003 nil) (om-load-inputkeyword (quote editor-keyword) "duration(s) of the FOFs [sec]" "wdur" (quote :wdur) 0.02 nil) (om-load-inputkeyword (quote editor-keyword) "decay time(s) of the FOFs [sec]" "wout" (quote :wout) 0.007 nil))) (om-make-point 11 383) (om-make-point 430 81) (let ((copy (if (find-class (quote ch-fof) nil) (let ((rep (make-instance (quote ch-fof) :numcols 5))) (when (member (quote freq) (get-init-slots-of-class (quote ch-fof)) :key (quote car)) (setf (slot-value rep (quote freq)) (list 523.2511 830.6094 1174.659 1567.9817 2217.4612))) (when (member (quote amp) (get-init-slots-of-class (quote ch-fof)) :key (quote car)) (setf (slot-value rep (quote amp)) 1.0)) (when (member (quote bw) (get-init-slots-of-class (quote ch-fof)) :key (quote car)) (setf (slot-value rep (quote bw)) 0.5)) (when (member (quote win) (get-init-slots-of-class (quote ch-fof)) :key (quote car)) (setf (slot-value rep (quote win)) 0.1)) (when (member (quote wdur) (get-init-slots-of-class (quote ch-fof)) :key (quote car)) (setf (slot-value rep (quote wdur)) 1.0)) (when (member (quote wout) (get-init-slots-of-class (quote ch-fof)) :key (quote car)) (setf (slot-value rep (quote wout)) 0.99)) (when (member (quote phs) (get-init-slots-of-class (quote ch-fof)) :key (quote car)) (setf (slot-value rep (quote phs)) 0)) (setf (lcontrols rep) (list)) (setf (action-time rep) 0) (setf (data rep) (list (list 523.2511 830.6094 1174.659 1567.9817 2217.4612) (list 1.0 1.0 1.0 1.0 1.0) (list 0.5 0.5 0.5 0.5 0.5) (list 0.1 0.1 0.1 0.1 0.1) (list 1.0 1.0 1.0 1.0 1.0) (list 0.99 0.99 0.99 0.99 0.99) (list 0 0 0 0 0))) rep)))) (when copy (setf (dur copy) (quote 4.0)) (setf (kt copy) nil)) copy) nil nil (pairlis (quote (panel-list cur-group-ind show-opt-fields color-list winsize winpos)) (list (list (list "All open" (list 0 (quote t)) (list 1 (quote t)) (list 2 (quote t)) (list 3 (quote t)) (list 4 (quote t)) (list 5 (quote t)) (list 6 (quote t))) (list "All close" (list 0 nil) (list 1 nil) (list 2 nil) (list 3 nil) (list 4 nil) (list 5 nil) (list 6 nil))) 0 (quote t) (list (om-make-color 0 0 0) (om-make-color 0 0 0) (om-make-color 0 0 0) (om-make-color 0 0 0) (om-make-color 0 0 0) (om-make-color 0 0 0) (om-make-color 0 0 0)) (om-make-point 978 784) (om-make-point 10 40))) nil nil nil t))) (when (fboundp (quote set-active)) (set-active box nil)) box))) (quote ((11 0 10 1 nil 1) (0 0 11 0 nil 0) (31 0 27 0 nil 0) (28 0 27 1 nil 0) (14 0 28 1 nil 0) (26 0 28 2 nil 0) (13 0 28 3 nil 0) (30 0 29 0 nil 0) (27 0 30 0 nil 0) (23 0 30 1 nil 0) (24 0 31 1 nil 0) (19 0 31 2 nil 0) (25 0 31 3 nil 0) (0 0 31 6 nil 0) (9 0 31 7 nil 0) (8 0 31 8 nil 0) (6 0 31 9 nil 0) (7 0 31 10 nil 0) (2 0 31 11 nil 0))) nil 6.15))
