; OM File Header - Saved 2012/11/12 19:31:18
; (6.06001 :patc (om-make-point 214 310) (om-make-point 357 23) (om-make-point 808 546) "" 183 0 "2012/08/02 12:09:16" "2012/10/02 13:35:29")
; End File Header
; External resources 
; (list (list (quote :sound) "../../../out-files/my_synt23.aiff"))
(in-package :om)(load-lib-for (quote ("OM-Chant")))(setf *om-current-persistent* (om-load-patch1 "09-fof-reb-patch6" (quote ((om-load-editor-box1 "CH-F0" (quote ch-f0) (quote ((om-load-inputfun (quote input-funbox) "object" "self" nil) (om-load-inputfun (quote input-funbox) "start time [sec]" "action-time" 0) (om-load-inputfun (quote input-funbox) "duration [sec]" "dur" 4) (om-load-inputfun (quote input-funbox) "fundamental frequency value(s) [Hz]" "f0" 110.0))) (om-make-point 86 241) (om-make-point 70 62) (if (find-class (quote ch-f0) nil) (let ((newobj (make-instance (quote ch-f0) :action-time 0 :dur 4 :f0 110.0 :from-file t))) (load-port-info newobj (quote nil)) (init-mus-color newobj (quote nil)) (set-extra-pairs newobj (quote nil)) (set-patch-pairs newobj (quote nil)) (set-name newobj nil) (set-tonalite newobj nil) newobj)) nil nil (pairlis (quote (palette-mode scale show-stems obj-mode score-mode winpos winsize mode grillestep notechancolor? zoom player inport outport deltapict cmnpref staff fontsize approx)) (list 0 nil (quote t) 1 0 (om-make-point 400 20) (om-make-point 370 280) 0 1000 nil 1 (quote :midishare) 0 nil (om-make-point 0 0) (let ((newobj (make-instance (quote edition-values)))) (setf (paper-size newobj) (om-make-point 600 800)) (setf (top-margin newobj) 2) (setf (left-margin newobj) 1) (setf (right-margin newobj) 1) (setf (bottom-margin newobj) 1) (setf (orientation newobj) nil) (setf (scale newobj) nil) (setf (system-space newobj) (quote (1))) (setf (system-color newobj) (quote nil)) (setf (line-space newobj) 1) (setf (title newobj) nil) (setf (show-title? newobj) nil) (setf (show-page? newobj) nil) (setf (sheet-id newobj) nil) (setf (page-mode newobj) nil) newobj) (quote g) 24 2)) nil nil nil t) (om-load-editor-box1 "CH-FOF" (quote ch-fof) (quote ((om-load-inputfun (quote input-funbox) "synthesis event" "self" nil) (om-load-inputfun (quote input-funbox) "number of components (FOFs)" "numcols" 1) (om-load-inputfun (quote input-funbox) "start time [sec]" "action-time" 0) (om-load-inputfun (quote input-funbox) "duration [sec]" "dur" 0) (om-load-inputfun (quote input-funbox) "control period [sec]" "kt" nil) (om-load-inputfun (quote input-funbox) "lambda function applied to each component" "user-fun" nil) (om-load-inputkeyword (quote editor-keyword) "" "freq" (quote :freq) 609.0 nil) (om-load-inputkeyword (quote editor-keyword) "!! Only linear [0.0 -> 1.0]" "amp" (quote :amp) 1.0 nil) (om-load-inputkeyword (quote editor-keyword) "" "bw" (quote :bw) 77.0 nil))) (om-make-point 16 164) (om-make-point 206 61) (let ((copy (if (find-class (quote ch-fof) nil) (let ((rep (make-instance (quote ch-fof) :numcols 5))) (when (member (quote freq) (get-init-slots-of-class (quote ch-fof)) :key (quote car)) (setf (slot-value rep (quote freq)) (list 800 1150 2800 3500 4950))) (when (member (quote amp) (get-init-slots-of-class (quote ch-fof)) :key (quote car)) (setf (slot-value rep (quote amp)) (list 1.0 0.63095737 0.1 0.015848933 0.001))) (when (member (quote bw) (get-init-slots-of-class (quote ch-fof)) :key (quote car)) (setf (slot-value rep (quote bw)) (list 80 90 120 130 140))) (when (member (quote win) (get-init-slots-of-class (quote ch-fof)) :key (quote car)) (setf (slot-value rep (quote win)) 0.003)) (when (member (quote wdur) (get-init-slots-of-class (quote ch-fof)) :key (quote car)) (setf (slot-value rep (quote wdur)) 0.02)) (when (member (quote wout) (get-init-slots-of-class (quote ch-fof)) :key (quote car)) (setf (slot-value rep (quote wout)) 0.007)) (when (member (quote phs) (get-init-slots-of-class (quote ch-fof)) :key (quote car)) (setf (slot-value rep (quote phs)) 0)) (setf (lcontrols rep) (list)) (setf (action-time rep) 0) (setf (data rep) (list (list 800 1150 2800 3500 4950) (list 1.0 0.63095737 0.1 0.015848933 0.001) (list 80 90 120 130 140) (list 0.003 0.003 0.003 0.003 0.003) (list 0.02 0.02 0.02 0.02 0.02) (list 0.007 0.007 0.007 0.007 0.007) (list 0 0 0 0 0))) rep)))) (when copy (setf (dur copy) (quote 4)) (setf (kt copy) nil)) copy) nil nil (pairlis (quote (panel-list cur-group-ind show-opt-fields color-list winsize winpos)) (list (list (list "All open" (list 0 (quote t)) (list 1 (quote t)) (list 2 (quote t)) (list 3 (quote t)) (list 4 (quote t)) (list 5 (quote t)) (list 6 (quote t))) (list "All close" (list 0 nil) (list 1 nil) (list 2 nil) (list 3 nil) (list 4 nil) (list 5 nil) (list 6 nil))) 0 (quote t) (list (om-make-color 0 0 0) (om-make-color 0 0 0) (om-make-color 0 0 0) (om-make-color 0 0 0) (om-make-color 0 0 0) (om-make-color 0 0 0) (om-make-color 0 0 0)) (om-make-point 978 784) (om-make-point 10 40))) nil nil nil t) (om-load-boxcall (quote bastype) "aux 9" (quote t) (quote nil) (om-make-point 93 126) (om-make-point 21 30) 4 "4" nil) (om-load-boxcall (quote bastype) "aux 5" (quote t) (quote nil) (om-make-point 49 127) (om-make-point 21 30) 5 "5" nil) (om-load-boxcall (quote bastype) "aux" (quote t) (quote nil) (om-make-point 71 107) (om-make-point 21 30) 0 "0" nil) (om-load-boxcall (quote genfun) "VOWEL-FORMANTS" (quote vowel-formants) (quote ((om-load-inputfunmenu1 (quote input-funmenu) "a sung vowel" "VOWEL" (list (quote a) (quote a)) (list (list "Alto A" (list (quote list) (quote (quote a)) (quote (quote a)))) (list "Alto E" (list (quote list) (quote (quote a)) (quote (quote e)))) (list "Alto I" (list (quote list) (quote (quote a)) (quote (quote i)))) (list "Alto O" (list (quote list) (quote (quote a)) (quote (quote o)))) (list "Alto U" (list (quote list) (quote (quote a)) (quote (quote u)))) (list "Bass A" (list (quote list) (quote (quote b)) (quote (quote a)))) (list "Bass E" (list (quote list) (quote (quote b)) (quote (quote e)))) (list "Bass I" (list (quote list) (quote (quote b)) (quote (quote i)))) (list "Bass O" (list (quote list) (quote (quote b)) (quote (quote o)))) (list "Bass U" (list (quote list) (quote (quote b)) (quote (quote u)))) (list "Countertenor A" (list (quote list) (quote (quote c)) (quote (quote a)))) (list "Countertenor E" (list (quote list) (quote (quote c)) (quote (quote e)))) (list "Countertenor I" (list (quote list) (quote (quote c)) (quote (quote i)))) (list "Countertenor O" (list (quote list) (quote (quote c)) (quote (quote o)))) (list "Countertenor U" (list (quote list) (quote (quote c)) (quote (quote u)))) (list "Soprano A" (list (quote list) (quote (quote s)) (quote (quote a)))) (list "Soprano E" (list (quote list) (quote (quote s)) (quote (quote e)))) (list "Soprano I" (list (quote list) (quote (quote s)) (quote (quote i)))) (list "Soprano O" (list (quote list) (quote (quote s)) (quote (quote o)))) (list "Soprano U" (list (quote list) (quote (quote s)) (quote (quote u)))) (list "Tenor A" (list (quote list) (quote (quote t)) (quote (quote a)))) (list "Tenor E" (list (quote list) (quote (quote t)) (quote (quote e)))) (list "Tenor I" (list (quote list) (quote (quote t)) (quote (quote i)))) (list "Tenor O" (list (quote list) (quote (quote t)) (quote (quote o)))) (list "Tenor U" (list (quote list) (quote (quote t)) (quote (quote u)))))))) (om-make-point 127 108) nil (list (list (list 800 1.0 80) (list 1150 0.63095737 90) (list 2800 0.1 120) (list 3500 0.015848933 130) (list 4950 0.001 140)) (list 800 1150 2800 3500 4950) (list 1.0 0.63095737 0.1 0.015848933 0.001) (list 80 90 120 130 140)) nil nil 4) (om-load-boxcomment "comment" (om-make-point 99 24) (quote "FILTER event 2") "" (om-make-point 522 137) nil (om-make-color 0 0 0) (om-make-font "Verdana" 10.0 :family "Verdana" :style (quote (:bold)) :mode (quote nil))) (om-load-boxcall (quote bastype) "aux 8" (quote t) (quote nil) (om-make-point 651 154) (om-make-point 80 30) (list 1.0 0.8 0.3) "(1.0 0.8 0.3)" nil) (om-load-boxcall (quote bastype) "aux 7" (quote t) (quote nil) (om-make-point 591 116) (om-make-point 103 30) (list 600 1000 1800) "(600 1000 1800)" nil) (om-load-boxcall (quote bastype) "aux 8" (quote t) (quote nil) (om-make-point 412 161) (om-make-point 92 30) (list 1.0 0.8 0.3) "(1.0 0.8 0.3)" nil) (om-load-boxcomment "comment" (om-make-point 55 24) (quote "n filters") "" (om-make-point 249 138) nil (om-make-color 0 0 0) (om-make-font "Verdana" 10.0 :family "Verdana" :style (quote (:plain)) :mode (quote nil))) (om-load-boxcall (quote bastype) "aux 7" (quote t) (quote nil) (om-make-point 365 121) (om-make-point 119 30) (list 300 609.0 1300) "(300 609.0 1300)" nil) (om-load-boxcomment "comment" (om-make-point 99 24) (quote "FILTER event 1") "" (om-make-point 245 111) nil (om-make-color 0 0 0) (om-make-font "Verdana" 10.0 :family "Verdana" :style (quote (:bold)) :mode (quote nil))) (om-load-boxcomment "comment" (om-make-point 63 24) (quote "durantion") "" (om-make-point 345 140) nil (om-make-color 0 0 0) (om-make-font "Verdana" 10.0 :family "Verdana" :style (quote (:plain)) :mode (quote nil))) (om-load-boxcomment "comment" (om-make-point 43 24) (quote "onset") "" (om-make-point 306 140) nil (om-make-color 0 0 0) (om-make-font "Verdana" 10.0 :family "Verdana" :style (quote (:plain)) :mode (quote nil))) (om-load-boxcomment "comment" (om-make-point 52 26) (quote ":patch") "" (om-make-point 315 353) nil (om-make-color 0 0 0) (om-make-font "Verdana" 11.0 :family "Verdana" :style (quote (:plain)) :mode (quote nil))) (om-load-boxcall (quote bastype) "aux 6" (quote t) (quote nil) (om-make-point 294 321) (om-make-point 27 30) 6 "6" nil) (om-load-editor-box1 "CH-FLT" (quote ch-flt) (quote ((om-load-inputfun (quote input-funbox) "syntehsis event" "self" nil) (om-load-inputfun (quote input-funbox) "number of components (Filters)" "numcols" 1) (om-load-inputfun (quote input-funbox) "start time [sec]" "action-time" 0) (om-load-inputfun (quote input-funbox) "duration [sec]" "dur" 0) (om-load-inputfun (quote input-funbox) "control period [sec]" "kt" nil) (om-load-inputfun (quote input-funbox) "lambda function applied to each component" "user-fun" nil) (om-load-inputkeyword (quote editor-keyword) "" "freq" (quote :freq) 609.0 nil) (om-load-inputkeyword (quote editor-keyword) "!! Only linear [0.0 -> 1.0]" "amp" (quote :amp) 1.0 nil))) (om-make-point 501 216) (om-make-point 176 62) (let ((copy (if (find-class (quote ch-flt) nil) (let ((rep (make-instance (quote ch-flt) :numcols 3))) (when (member (quote freq) (get-init-slots-of-class (quote ch-flt)) :key (quote car)) (setf (slot-value rep (quote freq)) (list 600 1000 1800))) (when (member (quote amp) (get-init-slots-of-class (quote ch-flt)) :key (quote car)) (setf (slot-value rep (quote amp)) (list 1.0 0.8 0.3))) (when (member (quote bw) (get-init-slots-of-class (quote ch-flt)) :key (quote car)) (setf (slot-value rep (quote bw)) 77.0)) (when (member (quote saliance) (get-init-slots-of-class (quote ch-flt)) :key (quote car)) (setf (slot-value rep (quote saliance)) 1)) (when (member (quote correction) (get-init-slots-of-class (quote ch-flt)) :key (quote car)) (setf (slot-value rep (quote correction)) 0)) (setf (lcontrols rep) (list)) (setf (action-time rep) 2) (setf (data rep) (list (list 600 1000 1800) (list 1.0 0.8 0.3) (list 77.0 77.0 77.0) (list 1 1 1) (list 0 0 0))) rep)))) (when copy (setf (dur copy) (quote 3)) (setf (kt copy) nil)) copy) nil nil (pairlis (quote (winpos winsize color-list show-opt-fields cur-group-ind panel-list)) (list (om-make-point 10 40) (om-make-point 500 280) (list (om-make-color 0 0 0) (om-make-color 0 0 0) (om-make-color 0 0 0) (om-make-color 0 0 0) (om-make-color 0 0 0)) (quote t) 0 (list (list "All open" (list 0 (quote t)) (list 1 (quote t)) (list 2 (quote t)) (list 3 (quote t)) (list 4 (quote t))) (list "All close" (list 0 nil) (list 1 nil) (list 2 nil) (list 3 nil) (list 4 nil))))) nil nil nil t) (om-load-boxcomment "comment" (om-make-point 43 24) (quote "onset") "" (om-make-point 539 156) nil (om-make-color 0 0 0) (om-make-font "Verdana" 10.0 :family "Verdana" :style (quote (:plain)) :mode (quote nil))) (om-load-boxcomment "comment" (om-make-point 63 24) (quote "durantion") "" (om-make-point 578 157) nil (om-make-color 0 0 0) (om-make-font "Verdana" 10.0 :family "Verdana" :style (quote (:plain)) :mode (quote nil))) (om-load-boxcall (quote bastype) "aux 4" (quote t) (quote nil) (om-make-point 553 184) (om-make-point 20 28) 2 "2" nil) (om-load-boxcall (quote bastype) "aux 3" (quote t) (quote nil) (om-make-point 523 187) (om-make-point 20 29) 3 "3" nil) (om-load-boxcall (quote bastype) "aux 2" (quote t) (quote nil) (om-make-point 574 184) (om-make-point 27 30) 3 "3" nil) (om-load-editor-box1 "CH-FLT" (quote ch-flt) (quote ((om-load-inputfun (quote input-funbox) "syntehsis event" "self" nil) (om-load-inputfun (quote input-funbox) "number of components (Filters)" "numcols" 1) (om-load-inputfun (quote input-funbox) "start time [sec]" "action-time" 0) (om-load-inputfun (quote input-funbox) "duration [sec]" "dur" 0) (om-load-inputfun (quote input-funbox) "control period [sec]" "kt" nil) (om-load-inputfun (quote input-funbox) "lambda function applied to each component" "user-fun" nil) (om-load-inputkeyword (quote editor-keyword) "" "freq" (quote :freq) 609.0 nil) (om-load-inputkeyword (quote editor-keyword) "!! Only linear [0.0 -> 1.0]" "amp" (quote :amp) 1.0 nil))) (om-make-point 263 200) (om-make-point 176 62) (let ((copy (if (find-class (quote ch-flt) nil) (let ((rep (make-instance (quote ch-flt) :numcols 3))) (when (member (quote freq) (get-init-slots-of-class (quote ch-flt)) :key (quote car)) (setf (slot-value rep (quote freq)) (list 300 609.0 1300))) (when (member (quote amp) (get-init-slots-of-class (quote ch-flt)) :key (quote car)) (setf (slot-value rep (quote amp)) (list 1.0 0.8 0.3))) (when (member (quote bw) (get-init-slots-of-class (quote ch-flt)) :key (quote car)) (setf (slot-value rep (quote bw)) 77.0)) (when (member (quote saliance) (get-init-slots-of-class (quote ch-flt)) :key (quote car)) (setf (slot-value rep (quote saliance)) 1)) (when (member (quote correction) (get-init-slots-of-class (quote ch-flt)) :key (quote car)) (setf (slot-value rep (quote correction)) 0)) (setf (lcontrols rep) (list)) (setf (action-time rep) 0) (setf (data rep) (list (list 300 609.0 1300) (list 1.0 0.8 0.3) (list 77.0 77.0 77.0) (list 1 1 1) (list 0 0 0))) rep)))) (when copy (setf (dur copy) (quote 1)) (setf (kt copy) nil)) copy) nil nil (pairlis (quote (winpos winsize color-list show-opt-fields cur-group-ind panel-list)) (list (om-make-point 10 40) (om-make-point 500 280) (list (om-make-color 0 0 0) (om-make-color 0 0 0) (om-make-color 0 0 0) (om-make-color 0 0 0) (om-make-color 0 0 0)) (quote t) 0 (list (list "All open" (list 0 (quote t)) (list 1 (quote t)) (list 2 (quote t)) (list 3 (quote t)) (list 4 (quote t))) (list "All close" (list 0 nil) (list 1 nil) (list 2 nil) (list 3 nil) (list 4 nil))))) nil nil nil t) (om-load-boxcomment "comment" (om-make-point 284 30) (quote "Another CHANT patch: 6 = FOF => FILTER") "" (om-make-point 47 48) nil (om-make-color 0 0 0) (om-make-font "Verdana" 12 :family "Verdana" :style (quote (:plain)) :mode (quote nil))) (om-load-boxcall (quote bastype) "aux 4" (quote t) (quote nil) (om-make-point 315 167) (om-make-point 21 30) 0 "0" nil) (om-load-boxcomment "comment" (om-make-point 175 31) (quote "The basic CHANT sounds") "" (om-make-point 142 6) nil (om-make-color 0 0 0) (om-make-font "Verdana" 12 :family "Verdana" :style (quote (:bold)) :mode (quote nil))) (om-load-boxcall (quote bastype) "aux 3" (quote t) (quote nil) (om-make-point 278 161) (om-make-point 27 30) 3 "3" nil) (om-load-boxcall (quote bastype) "aux 2" (quote t) (quote nil) (om-make-point 336 167) (om-make-point 20 28) 1 "1" nil) (om-load-boxcall (quote lispfun) "LIST" (quote list) (quote ((om-load-inputfun (quote input-funbox) "add-input" "add-input" (quote a)) (om-load-inputfun (quote input-funbox) "add-input" "add-input" (quote a)) (om-load-inputfun (quote input-funbox) "add-input" "add-input" nil) (om-load-inputfun (quote input-funbox) "add-input" "add-input" nil))) (om-make-point 136 318) (om-make-point 101 41) nil nil nil 1) (om-load-editor-box1 "my_synt23.aiff" (quote sound) (quote ((om-load-inputfun (quote input-funbox) "object" "self" nil) (om-load-inputfun (quote input-funbox) "a track index for multichannel mixing" "tracknum" 1) (om-load-inputfun (quote input-funbox) "a list of markers (s)" "markers" nil))) (om-make-point 161 438) (om-make-point 280 66) (let ((newobj (let ((thesound (load-sound (om-make-pathname :directory (quote (:relative "out-files")) :device :unspecific :host nil :name "my_synt23" :type "aiff") 1))) (when thesound (setf (markers thesound) (quote nil))) thesound))) (load-port-info newobj (quote nil)) (init-mus-color newobj (quote nil)) (set-extra-pairs newobj (quote nil)) (set-patch-pairs newobj (quote nil)) (set-name newobj "my_synt23.aiff") (set-tonalite newobj nil) newobj) nil nil (pairlis (quote (palette-mode scale show-stems obj-mode score-mode winpos winsize mode grillestep notechancolor? zoom player inport outport deltapict cmnpref staff fontsize approx)) (list 0 nil (quote t) 1 0 (om-make-point 329 128) (om-make-point 1469 403) 0 1000 nil 1 (quote :libaudio) 0 nil (om-make-point 0 0) (let ((newobj (make-instance (quote edition-values)))) (setf (paper-size newobj) (om-make-point 600 800)) (setf (top-margin newobj) 2) (setf (left-margin newobj) 1) (setf (right-margin newobj) 1) (setf (bottom-margin newobj) 1) (setf (orientation newobj) nil) (setf (scale newobj) nil) (setf (system-space newobj) (quote (1))) (setf (system-color newobj) (quote nil)) (setf (line-space newobj) 1) (setf (title newobj) nil) (setf (show-title? newobj) nil) (setf (show-page? newobj) nil) (setf (sheet-id newobj) nil) (setf (page-mode newobj) nil) newobj) (quote g) 24 2)) t nil nil t) (om-load-boxcall (quote genfun) "SYNTHESIZE" (quote synthesize) (quote ((om-load-inputfun (quote input-funbox) "something to synthesize..." "ELEMENTS" nil) (om-load-inputkeyword (quote input-keyword) "" "patch" (quote :patch) nil nil))) (om-make-point 260 367) nil (list (om-make-pathname :directory (quote (:absolute "Users" "bresson" "Dropbox" "workspaces" "om-acmmm" "out-files")) :device :unspecific :host nil :name "my_synt23" :type "aiff")) nil nil 1))) (quote ((3 0 1 1 nil 0) (4 0 1 2 nil 0) (2 0 1 3 nil 0) (5 1 1 6 nil 0) (5 2 1 7 nil 0) (5 3 1 8 nil 0) (21 0 17 1 nil 0) (20 0 17 2 nil 0) (22 0 17 3 nil 0) (8 0 17 6 nil 0) (7 0 17 7 nil 0) (27 0 23 1 nil 0) (25 0 23 2 nil 0) (28 0 23 3 nil 0) (11 0 23 6 nil 0) (9 0 23 7 nil 0) (0 0 29 0 nil 0) (1 0 29 1 nil 0) (23 0 29 2 nil 0) (17 0 29 3 nil 0) (31 0 30 0 nil 0) (29 0 31 0 nil 0) (16 0 31 1 nil 0))) nil 6.06001))
