; OM File Header - Saved 2019/08/01 11:46:18
; (6.15 :patc (om-make-point 368.12890625D0 130) (om-make-point 546 204) (om-make-point 1374 659) "" 183 0 nil "2019/08/01 11:46:18")
; End File Header
(in-package :om)(load-lib-for (quote ("OM-Chant")))(setf *om-current-persistent* (om-load-patch1 "12-silence-fadein&out" (quote ((let ((box (om-load-boxcomment "comment" (om-make-point 40 24) (quote "DUR") "" (om-make-point 149 174) nil (om-make-color 0 0 0) (om-make-font "Verdana" 10.0 :family "Verdana" :style (quote (:bold)) :mode (quote nil))))) (when (fboundp (quote set-active)) (set-active box nil)) box) (let ((box (om-load-boxcomment "comment" (om-make-point 40 24) (quote "DUR") "" (om-make-point 1001 173) nil (om-make-color 0 0 0) (om-make-font "Verdana" 10.0 :family "Verdana" :style (quote (:bold)) :mode (quote nil))))) (when (fboundp (quote set-active)) (set-active box nil)) box) (let ((box (om-load-boxcomment "comment" (om-make-point 40 24) (quote "DUR") "" (om-make-point 767 185) nil (om-make-color 0 0 0) (om-make-font "Verdana" 10.0 :family "Verdana" :style (quote (:bold)) :mode (quote nil))))) (when (fboundp (quote set-active)) (set-active box nil)) box) (let ((box (om-load-boxcomment "comment 8" (om-make-point 194 30) (quote "FADE-IN/OUT can also be nil.") "" (om-make-point 689 116) nil (om-make-color 0 0 0) (om-make-font "Verdana" 12 :family "Verdana" :style (quote (:plain)) :mode (quote nil))))) (when (fboundp (quote set-active)) (set-active box nil)) box) (let ((box (om-load-boxcall (quote bastype) "aux 17" (quote t) (quote nil) (om-make-point 964 376) (om-make-point 135 30) "ch_12-fadeinout_2" "\"ch_12-fadeinout_2\"" nil))) (when (fboundp (quote set-active)) (set-active box nil)) box) (let ((box (om-load-boxcall (quote genfun) "SYNTHESIZE 2" (quote synthesize) (quote ((om-load-inputfun (quote input-funbox) "something to synthesize..." "ELEMENTS" nil) (om-load-inputkeyword (quote input-keyword) "" "name" (quote :name) nil nil))) (om-make-point 905 416) nil nil nil nil 1))) (when (fboundp (quote set-active)) (set-active box nil)) box) (let ((box (om-load-editor-box1 "CH-FOF 3" (quote ch-fof) (quote ((om-load-inputfun (quote input-funbox) "synthesis event" "self" nil) (om-load-inputfun (quote input-funbox) "number of components (FOFs)" "numcols" 1) (om-load-inputfun (quote input-funbox) "start time [sec]" "action-time" 0) (om-load-inputfun (quote input-funbox) "duration [sec]" "dur" 0) (om-load-inputfun (quote input-funbox) "control period [sec]" "kt" nil) (om-load-inputfun (quote input-funbox) "lambda function applied to each component" "user-fun" nil) (om-load-inputkeyword (quote editor-keyword) "" "freq" (quote :freq) 609.0 nil) (om-load-inputkeyword (quote editor-keyword) "!! Only linear [0.0 -> 1.0]" "amp" (quote :amp) 1.0 nil) (om-load-inputkeyword (quote editor-keyword) "" "bw" (quote :bw) 77.0 nil))) (om-make-point 681 249) (om-make-point 206 61) (let ((copy (if (find-class (quote ch-fof) nil) (let ((rep (make-instance (quote ch-fof) :numcols 5))) (when (member (quote freq) (get-init-slots-of-class (quote ch-fof)) :key (quote car)) (setf (slot-value rep (quote freq)) (list 400 1600 2700 3300 4950))) (when (member (quote amp) (get-init-slots-of-class (quote ch-fof)) :key (quote car)) (setf (slot-value rep (quote amp)) (list 1.0 0.063095726 0.031622775 0.017782795 0.001))) (when (member (quote bw) (get-init-slots-of-class (quote ch-fof)) :key (quote car)) (setf (slot-value rep (quote bw)) (list 60 80 120 150 200))) (when (member (quote win) (get-init-slots-of-class (quote ch-fof)) :key (quote car)) (setf (slot-value rep (quote win)) 0.003)) (when (member (quote wdur) (get-init-slots-of-class (quote ch-fof)) :key (quote car)) (setf (slot-value rep (quote wdur)) 0.02)) (when (member (quote wout) (get-init-slots-of-class (quote ch-fof)) :key (quote car)) (setf (slot-value rep (quote wout)) 0.007)) (when (member (quote phs) (get-init-slots-of-class (quote ch-fof)) :key (quote car)) (setf (slot-value rep (quote phs)) 0)) (setf (lcontrols rep) (list)) (setf (action-time rep) 0) (setf (data rep) (list (list 400 1600 2700 3300 4950) (list 1.0 0.063095726 0.031622775 0.017782795 0.001) (list 60 80 120 150 200) (list 0.003 0.003 0.003 0.003 0.003) (list 0.02 0.02 0.02 0.02 0.02) (list 0.007 0.007 0.007 0.007 0.007) (list 0 0 0 0 0))) rep)))) (when copy (setf (dur copy) (quote (1 0.1 nil))) (setf (kt copy) nil)) copy) nil nil (pairlis (quote (panel-list cur-group-ind show-opt-fields color-list winsize winpos)) (list (list (list "All open" (list 0 (quote t)) (list 1 (quote t)) (list 2 (quote t)) (list 3 (quote t)) (list 4 (quote t)) (list 5 (quote t)) (list 6 (quote t))) (list "All close" (list 0 nil) (list 1 nil) (list 2 nil) (list 3 nil) (list 4 nil) (list 5 nil) (list 6 nil))) 0 (quote t) (list (om-make-color 0 0 0) (om-make-color 0 0 0) (om-make-color 0 0 0) (om-make-color 0 0 0) (om-make-color 0 0 0) (om-make-color 0 0 0) (om-make-color 0 0 0)) (om-make-point 978 784) (om-make-point 10 40))) nil nil nil t))) (when (fboundp (quote set-active)) (set-active box nil)) box) (let ((box (om-load-editor-box1 "" (quote sound) (quote ((om-load-inputfun (quote input-funbox) "object" "self" nil) (om-load-inputfun (quote input-funbox) "a track index for multichannel mixing" "tracknum" 1) (om-load-inputfun (quote input-funbox) "a list of markers (s)" "markers" nil))) (om-make-point 795 487) (om-make-point 295 81) (let ((newobj nil)) (load-port-info newobj (quote nil)) (init-mus-color newobj (quote nil)) (set-extra-pairs newobj (quote nil)) (set-patch-pairs newobj (quote nil)) (set-name newobj "") (set-tonalite newobj nil) newobj) nil nil (pairlis (quote (approx fontsize staff cmnpref deltapict outport inport player zoom notechancolor? grillestep mode winsize winpos score-mode obj-mode show-stems scale palette-mode)) (list 2 24 (quote g) (let ((newobj (make-instance (quote edition-values)))) (setf (paper-size newobj) (om-make-point 600 800)) (setf (top-margin newobj) 2) (setf (left-margin newobj) 1) (setf (right-margin newobj) 1) (setf (bottom-margin newobj) 1) (setf (orientation newobj) nil) (setf (scale newobj) nil) (setf (system-space newobj) (quote (1))) (setf (system-color newobj) (quote nil)) (setf (line-space newobj) 1) (setf (title newobj) nil) (setf (show-title? newobj) nil) (setf (show-page? newobj) nil) (setf (sheet-id newobj) nil) (setf (page-mode newobj) nil) newobj) (om-make-point 0 0) nil 0 (quote :libaudio) 1 nil 1000 0 (om-make-point 1111 664) (om-make-point 329 128) 0 1 (quote t) nil 0)) t nil nil nil))) (when (fboundp (quote set-active)) (set-active box nil)) box) (let ((box (om-load-boxcall (quote bastype) "aux 16" (quote t) (quote nil) (om-make-point 761 212) (om-make-point 76 30) (list 1 0.1 nil) "(1 0.1 nil)" nil))) (when (fboundp (quote set-active)) (set-active box nil)) box) (let ((box (om-load-boxcall (quote bastype) "aux 15" (quote t) (quote nil) (om-make-point 703 213) (om-make-point 21 30) 5 "5" nil))) (when (fboundp (quote set-active)) (set-active box nil)) box) (let ((box (om-load-boxcomment "comment 7" (om-make-point 18 30) (quote "A") "" (om-make-point 830 128.0) nil (om-make-color 0 0 0) (om-make-font "Verdana" 12 :family "Verdana" :style (quote (:bold :italic)) :mode (quote nil))))) (when (fboundp (quote set-active)) (set-active box nil)) box) (let ((box (om-load-boxcall (quote bastype) "aux 14" (quote t) (quote nil) (om-make-point 736 193) (om-make-point 21 30) 0 "0" nil))) (when (fboundp (quote set-active)) (set-active box nil)) box) (let ((box (om-load-boxcomment "comment 5" (om-make-point 37 24) (quote "onset") "" (om-make-point 727 169) nil (om-make-color 0 0 0) (om-make-font "Verdana" 10.0 :family "Verdana" :style (quote (:plain)) :mode (quote nil))))) (when (fboundp (quote set-active)) (set-active box nil)) box) (let ((box (om-load-boxcomment "comment 4" (om-make-point 37 24) (quote "onset") "" (om-make-point 953 164) nil (om-make-color 0 0 0) (om-make-font "Verdana" 10.0 :family "Verdana" :style (quote (:plain)) :mode (quote nil))))) (when (fboundp (quote set-active)) (set-active box nil)) box) (let ((box (om-load-boxcomment "comment 2" (om-make-point 18 30) (quote "O") "" (om-make-point 1061 136.0) nil (om-make-color 0 0 0) (om-make-font "Verdana" 12 :family "Verdana" :style (quote (:bold :italic)) :mode (quote nil))))) (when (fboundp (quote set-active)) (set-active box nil)) box) (let ((box (om-load-editor-box1 "CH-FOF 2" (quote ch-fof) (quote ((om-load-inputfun (quote input-funbox) "synthesis event" "self" nil) (om-load-inputfun (quote input-funbox) "number of components (FOFs)" "numcols" 1) (om-load-inputfun (quote input-funbox) "start time [sec]" "action-time" 0) (om-load-inputfun (quote input-funbox) "duration [sec]" "dur" 0) (om-load-inputfun (quote input-funbox) "control period [sec]" "kt" nil) (om-load-inputfun (quote input-funbox) "lambda function applied to each component" "user-fun" nil) (om-load-inputkeyword (quote editor-keyword) "" "freq" (quote :freq) 609.0 nil) (om-load-inputkeyword (quote editor-keyword) "!! Only linear [0.0 -> 1.0]" "amp" (quote :amp) 1.0 nil) (om-load-inputkeyword (quote editor-keyword) "" "bw" (quote :bw) 77.0 nil))) (om-make-point 905 245) (om-make-point 206 66) (let ((copy (if (find-class (quote ch-fof) nil) (let ((rep (make-instance (quote ch-fof) :numcols 5))) (when (member (quote freq) (get-init-slots-of-class (quote ch-fof)) :key (quote car)) (setf (slot-value rep (quote freq)) (list 450 800 2830 3500 4950))) (when (member (quote amp) (get-init-slots-of-class (quote ch-fof)) :key (quote car)) (setf (slot-value rep (quote amp)) (list 1.0 0.3548134 0.15848932 0.03981072 0.0017782794))) (when (member (quote bw) (get-init-slots-of-class (quote ch-fof)) :key (quote car)) (setf (slot-value rep (quote bw)) (list 70 80 100 130 135))) (when (member (quote win) (get-init-slots-of-class (quote ch-fof)) :key (quote car)) (setf (slot-value rep (quote win)) 0.003)) (when (member (quote wdur) (get-init-slots-of-class (quote ch-fof)) :key (quote car)) (setf (slot-value rep (quote wdur)) 0.02)) (when (member (quote wout) (get-init-slots-of-class (quote ch-fof)) :key (quote car)) (setf (slot-value rep (quote wout)) 0.007)) (when (member (quote phs) (get-init-slots-of-class (quote ch-fof)) :key (quote car)) (setf (slot-value rep (quote phs)) 0)) (setf (lcontrols rep) (list)) (setf (action-time rep) 2) (setf (data rep) (list (list 450 800 2830 3500 4950) (list 1.0 0.3548134 0.15848932 0.03981072 0.0017782794) (list 70 80 100 130 135) (list 0.003 0.003 0.003 0.003 0.003) (list 0.02 0.02 0.02 0.02 0.02) (list 0.007 0.007 0.007 0.007 0.007) (list 0 0 0 0 0))) rep)))) (when copy (setf (dur copy) (quote (1 nil 0.2))) (setf (kt copy) nil)) copy) nil nil (pairlis (quote (panel-list cur-group-ind show-opt-fields color-list winsize winpos)) (list (list (list "All open" (list 0 (quote t)) (list 1 (quote t)) (list 2 (quote t)) (list 3 (quote t)) (list 4 (quote t)) (list 5 (quote t)) (list 6 (quote t))) (list "All close" (list 0 nil) (list 1 nil) (list 2 nil) (list 3 nil) (list 4 nil) (list 5 nil) (list 6 nil))) 0 (quote t) (list (om-make-color 0 0 0) (om-make-color 0 0 0) (om-make-color 0 0 0) (om-make-color 0 0 0) (om-make-color 0 0 0) (om-make-color 0 0 0) (om-make-color 0 0 0)) (om-make-point 978 784) (om-make-point 10 40))) nil nil nil t))) (when (fboundp (quote set-active)) (set-active box nil)) box) (let ((box (om-load-boxcall (quote bastype) "aux 13" (quote t) (quote nil) (om-make-point 988 202) (om-make-point 76 30) (list 1 nil 0.2) "(1 nil 0.2)" nil))) (when (fboundp (quote set-active)) (set-active box nil)) box) (let ((box (om-load-boxcall (quote bastype) "aux 12" (quote t) (quote nil) (om-make-point 929 208) (om-make-point 21 30) 5 "5" nil))) (when (fboundp (quote set-active)) (set-active box nil)) box) (let ((box (om-load-boxcall (quote bastype) "aux 11" (quote t) (quote nil) (om-make-point 962 188) (om-make-point 21 30) 2 "2" nil))) (when (fboundp (quote set-active)) (set-active box nil)) box) (let ((box (om-load-boxcall (quote genfun) "X-APPEND 2" (quote x-append) (quote ((om-load-inputfun (quote input-funbox) "first element" "L1?" nil) (om-load-inputfun (quote input-funbox) "second element" "L2?" nil) (om-load-inputfun (quote input-funbox) "additional elements" "LST?" nil))) (om-make-point 894 346) nil nil nil nil 1))) (when (fboundp (quote set-active)) (set-active box nil)) box) (let ((box (om-load-editor-box1 "CH-F0 2" (quote ch-f0) (quote ((om-load-inputfun (quote input-funbox) "object" "self" nil) (om-load-inputfun (quote input-funbox) "start time [sec]" "action-time" 0) (om-load-inputfun (quote input-funbox) "duration [sec]" "dur" 0) (om-load-inputfun (quote input-funbox) "fundamental frequency value(s) [Hz]" "f0" 110.0))) (om-make-point 1147 271) (om-make-point 96 62) (if (find-class (quote ch-f0) nil) (let ((newobj (make-instance (quote ch-f0) :action-time 0 :dur 4 :f0 110.0 :from-file t))) (load-port-info newobj (quote nil)) (init-mus-color newobj (quote nil)) (set-extra-pairs newobj (quote nil)) (set-patch-pairs newobj (quote nil)) (set-name newobj nil) (set-tonalite newobj nil) newobj)) nil nil (pairlis (quote (approx fontsize staff cmnpref deltapict outport inport player zoom notechancolor? grillestep mode winsize winpos score-mode obj-mode show-stems scale palette-mode)) (list 2 24 (quote g) (let ((newobj (make-instance (quote edition-values)))) (setf (paper-size newobj) (om-make-point 600 800)) (setf (top-margin newobj) 2) (setf (left-margin newobj) 1) (setf (right-margin newobj) 1) (setf (bottom-margin newobj) 1) (setf (orientation newobj) nil) (setf (scale newobj) nil) (setf (system-space newobj) (quote (1))) (setf (system-color newobj) (quote nil)) (setf (line-space newobj) 1) (setf (title newobj) nil) (setf (show-title? newobj) nil) (setf (show-page? newobj) nil) (setf (sheet-id newobj) nil) (setf (page-mode newobj) nil) newobj) (om-make-point 0 0) nil 0 (quote :midishare) 1 nil 1000 0 (om-make-point 370 280) (om-make-point 400 20) 0 1 (quote t) nil 0)) t nil nil t))) (when (fboundp (quote set-active)) (set-active box nil)) box) (let ((box (om-load-boxcall (quote bastype) "aux 10" (quote t) (quote nil) (om-make-point 1196 203.0) (om-make-point 20 28) 4 "4" nil))) (when (fboundp (quote set-active)) (set-active box nil)) box) (let ((box (om-load-boxcall (quote bastype) "aux 9" (quote t) (quote nil) (om-make-point 1173 231.0) (om-make-point 21 30) 0 "0" nil))) (when (fboundp (quote set-active)) (set-active box nil)) box) (let ((box (om-load-boxcall (quote bastype) "aux 8" (quote t) (quote nil) (om-make-point 1232 229.0) (om-make-point 46 30) 110.0 "110.0" nil))) (when (fboundp (quote set-active)) (set-active box nil)) box) (let ((box (om-load-boxcall (quote genfun) "VOWEL-FORMANTS 3" (quote vowel-formants) (quote ((om-load-inputfunmenu1 (quote input-funmenu) "a sung vowel" "VOWEL" (list (quote a) (quote o)) (list (list "Alto A" (list (quote list) (quote (quote a)) (quote (quote a)))) (list "Alto E" (list (quote list) (quote (quote a)) (quote (quote e)))) (list "Alto I" (list (quote list) (quote (quote a)) (quote (quote i)))) (list "Alto O" (list (quote list) (quote (quote a)) (quote (quote o)))) (list "Alto U" (list (quote list) (quote (quote a)) (quote (quote u)))) (list "Bass A" (list (quote list) (quote (quote b)) (quote (quote a)))) (list "Bass E" (list (quote list) (quote (quote b)) (quote (quote e)))) (list "Bass I" (list (quote list) (quote (quote b)) (quote (quote i)))) (list "Bass O" (list (quote list) (quote (quote b)) (quote (quote o)))) (list "Bass U" (list (quote list) (quote (quote b)) (quote (quote u)))) (list "Countertenor A" (list (quote list) (quote (quote c)) (quote (quote a)))) (list "Countertenor E" (list (quote list) (quote (quote c)) (quote (quote e)))) (list "Countertenor I" (list (quote list) (quote (quote c)) (quote (quote i)))) (list "Countertenor O" (list (quote list) (quote (quote c)) (quote (quote o)))) (list "Countertenor U" (list (quote list) (quote (quote c)) (quote (quote u)))) (list "Soprano A" (list (quote list) (quote (quote s)) (quote (quote a)))) (list "Soprano E" (list (quote list) (quote (quote s)) (quote (quote e)))) (list "Soprano I" (list (quote list) (quote (quote s)) (quote (quote i)))) (list "Soprano O" (list (quote list) (quote (quote s)) (quote (quote o)))) (list "Soprano U" (list (quote list) (quote (quote s)) (quote (quote u)))) (list "Tenor A" (list (quote list) (quote (quote t)) (quote (quote a)))) (list "Tenor E" (list (quote list) (quote (quote t)) (quote (quote e)))) (list "Tenor I" (list (quote list) (quote (quote t)) (quote (quote i)))) (list "Tenor O" (list (quote list) (quote (quote t)) (quote (quote o)))) (list "Tenor U" (list (quote list) (quote (quote t)) (quote (quote u)))))))) (om-make-point 1059 159) nil nil nil nil 4))) (when (fboundp (quote set-active)) (set-active box nil)) box) (let ((box (om-load-boxcall (quote genfun) "VOWEL-FORMANTS" (quote vowel-formants) (quote ((om-load-inputfunmenu1 (quote input-funmenu) "a sung vowel" "VOWEL" (list (quote a) (quote e)) (list (list "Alto A" (list (quote list) (quote (quote a)) (quote (quote a)))) (list "Alto E" (list (quote list) (quote (quote a)) (quote (quote e)))) (list "Alto I" (list (quote list) (quote (quote a)) (quote (quote i)))) (list "Alto O" (list (quote list) (quote (quote a)) (quote (quote o)))) (list "Alto U" (list (quote list) (quote (quote a)) (quote (quote u)))) (list "Bass A" (list (quote list) (quote (quote b)) (quote (quote a)))) (list "Bass E" (list (quote list) (quote (quote b)) (quote (quote e)))) (list "Bass I" (list (quote list) (quote (quote b)) (quote (quote i)))) (list "Bass O" (list (quote list) (quote (quote b)) (quote (quote o)))) (list "Bass U" (list (quote list) (quote (quote b)) (quote (quote u)))) (list "Countertenor A" (list (quote list) (quote (quote c)) (quote (quote a)))) (list "Countertenor E" (list (quote list) (quote (quote c)) (quote (quote e)))) (list "Countertenor I" (list (quote list) (quote (quote c)) (quote (quote i)))) (list "Countertenor O" (list (quote list) (quote (quote c)) (quote (quote o)))) (list "Countertenor U" (list (quote list) (quote (quote c)) (quote (quote u)))) (list "Soprano A" (list (quote list) (quote (quote s)) (quote (quote a)))) (list "Soprano E" (list (quote list) (quote (quote s)) (quote (quote e)))) (list "Soprano I" (list (quote list) (quote (quote s)) (quote (quote i)))) (list "Soprano O" (list (quote list) (quote (quote s)) (quote (quote o)))) (list "Soprano U" (list (quote list) (quote (quote s)) (quote (quote u)))) (list "Tenor A" (list (quote list) (quote (quote t)) (quote (quote a)))) (list "Tenor E" (list (quote list) (quote (quote t)) (quote (quote e)))) (list "Tenor I" (list (quote list) (quote (quote t)) (quote (quote i)))) (list "Tenor O" (list (quote list) (quote (quote t)) (quote (quote o)))) (list "Tenor U" (list (quote list) (quote (quote t)) (quote (quote u)))))))) (om-make-point 819 155) nil nil nil nil 4))) (when (fboundp (quote set-active)) (set-active box nil)) box) (let ((box (om-load-boxcall (quote bastype) "aux 6" (quote t) (quote nil) (om-make-point 345 366) (om-make-point 135 30) "ch_12-fadeinout_1" "\"ch_12-fadeinout_1\"" nil))) (when (fboundp (quote set-active)) (set-active box nil)) box) (let ((box (om-load-boxcall (quote genfun) "VOWEL-FORMANTS 2" (quote vowel-formants) (quote ((om-load-inputfunmenu1 (quote input-funmenu) "a sung vowel" "VOWEL" (list (quote a) (quote e)) (list (list "Alto A" (list (quote list) (quote (quote a)) (quote (quote a)))) (list "Alto E" (list (quote list) (quote (quote a)) (quote (quote e)))) (list "Alto I" (list (quote list) (quote (quote a)) (quote (quote i)))) (list "Alto O" (list (quote list) (quote (quote a)) (quote (quote o)))) (list "Alto U" (list (quote list) (quote (quote a)) (quote (quote u)))) (list "Bass A" (list (quote list) (quote (quote b)) (quote (quote a)))) (list "Bass E" (list (quote list) (quote (quote b)) (quote (quote e)))) (list "Bass I" (list (quote list) (quote (quote b)) (quote (quote i)))) (list "Bass O" (list (quote list) (quote (quote b)) (quote (quote o)))) (list "Bass U" (list (quote list) (quote (quote b)) (quote (quote u)))) (list "Countertenor A" (list (quote list) (quote (quote c)) (quote (quote a)))) (list "Countertenor E" (list (quote list) (quote (quote c)) (quote (quote e)))) (list "Countertenor I" (list (quote list) (quote (quote c)) (quote (quote i)))) (list "Countertenor O" (list (quote list) (quote (quote c)) (quote (quote o)))) (list "Countertenor U" (list (quote list) (quote (quote c)) (quote (quote u)))) (list "Soprano A" (list (quote list) (quote (quote s)) (quote (quote a)))) (list "Soprano E" (list (quote list) (quote (quote s)) (quote (quote e)))) (list "Soprano I" (list (quote list) (quote (quote s)) (quote (quote i)))) (list "Soprano O" (list (quote list) (quote (quote s)) (quote (quote o)))) (list "Soprano U" (list (quote list) (quote (quote s)) (quote (quote u)))) (list "Tenor A" (list (quote list) (quote (quote t)) (quote (quote a)))) (list "Tenor E" (list (quote list) (quote (quote t)) (quote (quote e)))) (list "Tenor I" (list (quote list) (quote (quote t)) (quote (quote i)))) (list "Tenor O" (list (quote list) (quote (quote t)) (quote (quote o)))) (list "Tenor U" (list (quote list) (quote (quote t)) (quote (quote u)))))))) (om-make-point 172 125) nil nil nil nil 4))) (when (fboundp (quote set-active)) (set-active box nil)) box) (let ((box (om-load-boxcall (quote genfun) "VOWEL-FORMANTS 2" (quote vowel-formants) (quote ((om-load-inputfunmenu1 (quote input-funmenu) "a sung vowel" "VOWEL" (list (quote a) (quote o)) (list (list "Alto A" (list (quote list) (quote (quote a)) (quote (quote a)))) (list "Alto E" (list (quote list) (quote (quote a)) (quote (quote e)))) (list "Alto I" (list (quote list) (quote (quote a)) (quote (quote i)))) (list "Alto O" (list (quote list) (quote (quote a)) (quote (quote o)))) (list "Alto U" (list (quote list) (quote (quote a)) (quote (quote u)))) (list "Bass A" (list (quote list) (quote (quote b)) (quote (quote a)))) (list "Bass E" (list (quote list) (quote (quote b)) (quote (quote e)))) (list "Bass I" (list (quote list) (quote (quote b)) (quote (quote i)))) (list "Bass O" (list (quote list) (quote (quote b)) (quote (quote o)))) (list "Bass U" (list (quote list) (quote (quote b)) (quote (quote u)))) (list "Countertenor A" (list (quote list) (quote (quote c)) (quote (quote a)))) (list "Countertenor E" (list (quote list) (quote (quote c)) (quote (quote e)))) (list "Countertenor I" (list (quote list) (quote (quote c)) (quote (quote i)))) (list "Countertenor O" (list (quote list) (quote (quote c)) (quote (quote o)))) (list "Countertenor U" (list (quote list) (quote (quote c)) (quote (quote u)))) (list "Soprano A" (list (quote list) (quote (quote s)) (quote (quote a)))) (list "Soprano E" (list (quote list) (quote (quote s)) (quote (quote e)))) (list "Soprano I" (list (quote list) (quote (quote s)) (quote (quote i)))) (list "Soprano O" (list (quote list) (quote (quote s)) (quote (quote o)))) (list "Soprano U" (list (quote list) (quote (quote s)) (quote (quote u)))) (list "Tenor A" (list (quote list) (quote (quote t)) (quote (quote a)))) (list "Tenor E" (list (quote list) (quote (quote t)) (quote (quote e)))) (list "Tenor I" (list (quote list) (quote (quote t)) (quote (quote i)))) (list "Tenor O" (list (quote list) (quote (quote t)) (quote (quote o)))) (list "Tenor U" (list (quote list) (quote (quote t)) (quote (quote u)))))))) (om-make-point 398 129) nil nil nil nil 4))) (when (fboundp (quote set-active)) (set-active box nil)) box) (let ((box (om-load-boxcall (quote bastype) "aux 7" (quote t) (quote nil) (om-make-point 612 219.0) (om-make-point 46 30) 110.0 "110.0" nil))) (when (fboundp (quote set-active)) (set-active box nil)) box) (let ((box (om-load-boxcall (quote bastype) "aux 5" (quote t) (quote nil) (om-make-point 553 221.0) (om-make-point 21 30) 0 "0" nil))) (when (fboundp (quote set-active)) (set-active box nil)) box) (let ((box (om-load-boxcall (quote bastype) "aux" (quote t) (quote nil) (om-make-point 576 193.0) (om-make-point 20 28) 4 "4" nil))) (when (fboundp (quote set-active)) (set-active box nil)) box) (let ((box (om-load-editor-box1 "CH-F0" (quote ch-f0) (quote ((om-load-inputfun (quote input-funbox) "object" "self" nil) (om-load-inputfun (quote input-funbox) "start time [sec]" "action-time" 0) (om-load-inputfun (quote input-funbox) "duration [sec]" "dur" 0) (om-load-inputfun (quote input-funbox) "fundamental frequency value(s) [Hz]" "f0" 110.0))) (om-make-point 527 261) (om-make-point 96 62) (if (find-class (quote ch-f0) nil) (let ((newobj (make-instance (quote ch-f0) :action-time 0 :dur 4 :f0 110.0 :from-file t))) (load-port-info newobj (quote nil)) (init-mus-color newobj (quote nil)) (set-extra-pairs newobj (quote nil)) (set-patch-pairs newobj (quote nil)) (set-name newobj nil) (set-tonalite newobj nil) newobj)) nil nil (pairlis (quote (approx fontsize staff cmnpref deltapict outport inport player zoom notechancolor? grillestep mode winsize winpos score-mode obj-mode show-stems scale palette-mode)) (list 2 24 (quote g) (let ((newobj (make-instance (quote edition-values)))) (setf (paper-size newobj) (om-make-point 600 800)) (setf (top-margin newobj) 2) (setf (left-margin newobj) 1) (setf (right-margin newobj) 1) (setf (bottom-margin newobj) 1) (setf (orientation newobj) nil) (setf (scale newobj) nil) (setf (system-space newobj) (quote (1))) (setf (system-color newobj) (quote nil)) (setf (line-space newobj) 1) (setf (title newobj) nil) (setf (show-title? newobj) nil) (setf (show-page? newobj) nil) (setf (sheet-id newobj) nil) (setf (page-mode newobj) nil) newobj) (om-make-point 0 0) nil 0 (quote :midishare) 1 nil 1000 0 (om-make-point 370 280) (om-make-point 400 20) 0 1 (quote t) nil 0)) t nil nil t))) (when (fboundp (quote set-active)) (set-active box nil)) box) (let ((box (om-load-boxcall (quote genfun) "X-APPEND" (quote x-append) (quote ((om-load-inputfun (quote input-funbox) "first element" "L1?" nil) (om-load-inputfun (quote input-funbox) "second element" "L2?" nil) (om-load-inputfun (quote input-funbox) "additional elements" "LST?" nil))) (om-make-point 274 336) nil nil nil nil 1))) (when (fboundp (quote set-active)) (set-active box nil)) box) (let ((box (om-load-boxcall (quote bastype) "aux 4" (quote t) (quote nil) (om-make-point 342 178) (om-make-point 21 30) 2 "2" nil))) (when (fboundp (quote set-active)) (set-active box nil)) box) (let ((box (om-load-boxcall (quote bastype) "aux 3" (quote t) (quote nil) (om-make-point 309 198) (om-make-point 21 30) 5 "5" nil))) (when (fboundp (quote set-active)) (set-active box nil)) box) (let ((box (om-load-boxcall (quote bastype) "aux 2" (quote t) (quote nil) (om-make-point 368 192) (om-make-point 70 28) (list 1 0.6 0.2) "(1 0.6 0.2)" nil))) (when (fboundp (quote set-active)) (set-active box nil)) box) (let ((box (om-load-editor-box1 "CH-FOF" (quote ch-fof) (quote ((om-load-inputfun (quote input-funbox) "synthesis event" "self" nil) (om-load-inputfun (quote input-funbox) "number of components (FOFs)" "numcols" 1) (om-load-inputfun (quote input-funbox) "start time [sec]" "action-time" 0) (om-load-inputfun (quote input-funbox) "duration [sec]" "dur" 0) (om-load-inputfun (quote input-funbox) "control period [sec]" "kt" nil) (om-load-inputfun (quote input-funbox) "lambda function applied to each component" "user-fun" nil) (om-load-inputkeyword (quote editor-keyword) "" "freq" (quote :freq) 609.0 nil) (om-load-inputkeyword (quote editor-keyword) "!! Only linear [0.0 -> 1.0]" "amp" (quote :amp) 1.0 nil) (om-load-inputkeyword (quote editor-keyword) "" "bw" (quote :bw) 77.0 nil))) (om-make-point 287 235) (om-make-point 206 66) (let ((copy (if (find-class (quote ch-fof) nil) (let ((rep (make-instance (quote ch-fof) :numcols 5))) (when (member (quote freq) (get-init-slots-of-class (quote ch-fof)) :key (quote car)) (setf (slot-value rep (quote freq)) (list 450 800 2830 3500 4950))) (when (member (quote amp) (get-init-slots-of-class (quote ch-fof)) :key (quote car)) (setf (slot-value rep (quote amp)) (list 1.0 0.3548134 0.15848932 0.03981072 0.0017782794))) (when (member (quote bw) (get-init-slots-of-class (quote ch-fof)) :key (quote car)) (setf (slot-value rep (quote bw)) (list 70 80 100 130 135))) (when (member (quote win) (get-init-slots-of-class (quote ch-fof)) :key (quote car)) (setf (slot-value rep (quote win)) 0.003)) (when (member (quote wdur) (get-init-slots-of-class (quote ch-fof)) :key (quote car)) (setf (slot-value rep (quote wdur)) 0.02)) (when (member (quote wout) (get-init-slots-of-class (quote ch-fof)) :key (quote car)) (setf (slot-value rep (quote wout)) 0.007)) (when (member (quote phs) (get-init-slots-of-class (quote ch-fof)) :key (quote car)) (setf (slot-value rep (quote phs)) 0)) (setf (lcontrols rep) (list)) (setf (action-time rep) 2) (setf (data rep) (list (list 450 800 2830 3500 4950) (list 1.0 0.3548134 0.15848932 0.03981072 0.0017782794) (list 70 80 100 130 135) (list 0.003 0.003 0.003 0.003 0.003) (list 0.02 0.02 0.02 0.02 0.02) (list 0.007 0.007 0.007 0.007 0.007) (list 0 0 0 0 0))) rep)))) (when copy (setf (dur copy) (quote (1 0.6 0.2))) (setf (kt copy) nil)) copy) nil nil (pairlis (quote (panel-list cur-group-ind show-opt-fields color-list winsize winpos)) (list (list (list "All open" (list 0 (quote t)) (list 1 (quote t)) (list 2 (quote t)) (list 3 (quote t)) (list 4 (quote t)) (list 5 (quote t)) (list 6 (quote t))) (list "All close" (list 0 nil) (list 1 nil) (list 2 nil) (list 3 nil) (list 4 nil) (list 5 nil) (list 6 nil))) 0 (quote t) (list (om-make-color 0 0 0) (om-make-color 0 0 0) (om-make-color 0 0 0) (om-make-color 0 0 0) (om-make-color 0 0 0) (om-make-color 0 0 0) (om-make-color 0 0 0)) (om-make-point 978 784) (om-make-point 10 40))) nil nil nil t))) (when (fboundp (quote set-active)) (set-active box nil)) box) (let ((box (om-load-boxcomment "comment" (om-make-point 18 30) (quote "O") "" (om-make-point 400 106.0) nil (om-make-color 0 0 0) (om-make-font "Verdana" 12 :family "Verdana" :style (quote (:bold :italic)) :mode (quote nil))))) (when (fboundp (quote set-active)) (set-active box nil)) box) (let ((box (om-load-boxcomment "comment" (om-make-point 40 24) (quote "DUR") "" (om-make-point 366 170) nil (om-make-color 0 0 0) (om-make-font "Verdana" 10.0 :family "Verdana" :style (quote (:bold)) :mode (quote nil))))) (when (fboundp (quote set-active)) (set-active box nil)) box) (let ((box (om-load-boxcomment "comment" (om-make-point 37 24) (quote "onset") "" (om-make-point 333 154) nil (om-make-color 0 0 0) (om-make-font "Verdana" 10.0 :family "Verdana" :style (quote (:plain)) :mode (quote nil))))) (when (fboundp (quote set-active)) (set-active box nil)) box) (let ((box (om-load-boxcomment "comment" (om-make-point 37 24) (quote "onset") "" (om-make-point 107 159) nil (om-make-color 0 0 0) (om-make-font "Verdana" 10.0 :family "Verdana" :style (quote (:plain)) :mode (quote nil))))) (when (fboundp (quote set-active)) (set-active box nil)) box) (let ((box (om-load-boxcall (quote bastype) "aux 4" (quote t) (quote nil) (om-make-point 116 183) (om-make-point 21 30) 0 "0" nil))) (when (fboundp (quote set-active)) (set-active box nil)) box) (let ((box (om-load-boxcomment "comment" (om-make-point 310 60) (quote "Replace DUR by a list (DUR FADE-IN FADE-OUT)$in order to generate envelopes and shut down$between successive events") "" (om-make-point 139 33) nil (om-make-color 0 0 0) (om-make-font "Verdana" 12 :family "Verdana" :style (quote (:plain)) :mode (quote nil))))) (when (fboundp (quote set-active)) (set-active box nil)) box) (let ((box (om-load-boxcomment "comment" (om-make-point 175 31) (quote "The basic CHANT sounds") "" (om-make-point 142 6) nil (om-make-color 0 0 0) (om-make-font "Verdana" 12 :family "Verdana" :style (quote (:bold)) :mode (quote nil))))) (when (fboundp (quote set-active)) (set-active box nil)) box) (let ((box (om-load-boxcomment "comment" (om-make-point 18 30) (quote "A") "" (om-make-point 183 98.0) nil (om-make-color 0 0 0) (om-make-font "Verdana" 12 :family "Verdana" :style (quote (:bold :italic)) :mode (quote nil))))) (when (fboundp (quote set-active)) (set-active box nil)) box) (let ((box (om-load-boxcall (quote bastype) "aux 3" (quote t) (quote nil) (om-make-point 83 203) (om-make-point 21 30) 5 "5" nil))) (when (fboundp (quote set-active)) (set-active box nil)) box) (let ((box (om-load-boxcall (quote bastype) "aux 2" (quote t) (quote nil) (om-make-point 140 199) (om-make-point 76 28) (list 1 0.04 0.1) "(1 0.04 0.1)" nil))) (when (fboundp (quote set-active)) (set-active box nil)) box) (let ((box (om-load-editor-box1 "" (quote sound) (quote ((om-load-inputfun (quote input-funbox) "object" "self" nil) (om-load-inputfun (quote input-funbox) "a track index for multichannel mixing" "tracknum" 1) (om-load-inputfun (quote input-funbox) "a list of markers (s)" "markers" nil))) (om-make-point 176 476) (om-make-point 295 81) (let ((newobj nil)) (load-port-info newobj (quote nil)) (init-mus-color newobj (quote nil)) (set-extra-pairs newobj (quote nil)) (set-patch-pairs newobj (quote nil)) (set-name newobj "") (set-tonalite newobj nil) newobj) nil nil (pairlis (quote (approx fontsize staff cmnpref deltapict outport inport player zoom notechancolor? grillestep mode winsize winpos score-mode obj-mode show-stems scale palette-mode)) (list 2 24 (quote g) (let ((newobj (make-instance (quote edition-values)))) (setf (paper-size newobj) (om-make-point 600 800)) (setf (top-margin newobj) 2) (setf (left-margin newobj) 1) (setf (right-margin newobj) 1) (setf (bottom-margin newobj) 1) (setf (orientation newobj) nil) (setf (scale newobj) nil) (setf (system-space newobj) (quote (1))) (setf (system-color newobj) (quote nil)) (setf (line-space newobj) 1) (setf (title newobj) nil) (setf (show-title? newobj) nil) (setf (show-page? newobj) nil) (setf (sheet-id newobj) nil) (setf (page-mode newobj) nil) newobj) (om-make-point 0 0) nil 0 (quote :libaudio) 1 nil 1000 0 (om-make-point 1111 664) (om-make-point 329 128) 0 1 (quote t) nil 0)) t nil nil nil))) (when (fboundp (quote set-active)) (set-active box nil)) box) (let ((box (om-load-boxcall (quote genfun) "SYNTHESIZE" (quote synthesize) (quote ((om-load-inputfun (quote input-funbox) "something to synthesize..." "ELEMENTS" nil) (om-load-inputkeyword (quote input-keyword) "" "name" (quote :name) nil nil))) (om-make-point 285 406) nil nil nil nil 1))) (when (fboundp (quote set-active)) (set-active box nil)) box) (let ((box (om-load-editor-box1 "CH-FOF" (quote ch-fof) (quote ((om-load-inputfun (quote input-funbox) "synthesis event" "self" nil) (om-load-inputfun (quote input-funbox) "number of components (FOFs)" "numcols" 1) (om-load-inputfun (quote input-funbox) "start time [sec]" "action-time" 0) (om-load-inputfun (quote input-funbox) "duration [sec]" "dur" 0) (om-load-inputfun (quote input-funbox) "control period [sec]" "kt" nil) (om-load-inputfun (quote input-funbox) "lambda function applied to each component" "user-fun" nil) (om-load-inputkeyword (quote editor-keyword) "" "freq" (quote :freq) 609.0 nil) (om-load-inputkeyword (quote editor-keyword) "!! Only linear [0.0 -> 1.0]" "amp" (quote :amp) 1.0 nil) (om-load-inputkeyword (quote editor-keyword) "" "bw" (quote :bw) 77.0 nil))) (om-make-point 61 239) (om-make-point 206 61) (let ((copy (if (find-class (quote ch-fof) nil) (let ((rep (make-instance (quote ch-fof) :numcols 5))) (when (member (quote freq) (get-init-slots-of-class (quote ch-fof)) :key (quote car)) (setf (slot-value rep (quote freq)) (list 400 1600 2700 3300 4950))) (when (member (quote amp) (get-init-slots-of-class (quote ch-fof)) :key (quote car)) (setf (slot-value rep (quote amp)) (list 1.0 0.063095726 0.031622775 0.017782795 0.001))) (when (member (quote bw) (get-init-slots-of-class (quote ch-fof)) :key (quote car)) (setf (slot-value rep (quote bw)) (list 60 80 120 150 200))) (when (member (quote win) (get-init-slots-of-class (quote ch-fof)) :key (quote car)) (setf (slot-value rep (quote win)) 0.003)) (when (member (quote wdur) (get-init-slots-of-class (quote ch-fof)) :key (quote car)) (setf (slot-value rep (quote wdur)) 0.02)) (when (member (quote wout) (get-init-slots-of-class (quote ch-fof)) :key (quote car)) (setf (slot-value rep (quote wout)) 0.007)) (when (member (quote phs) (get-init-slots-of-class (quote ch-fof)) :key (quote car)) (setf (slot-value rep (quote phs)) 0)) (setf (lcontrols rep) (list)) (setf (action-time rep) 0) (setf (data rep) (list (list 400 1600 2700 3300 4950) (list 1.0 0.063095726 0.031622775 0.017782795 0.001) (list 60 80 120 150 200) (list 0.003 0.003 0.003 0.003 0.003) (list 0.02 0.02 0.02 0.02 0.02) (list 0.007 0.007 0.007 0.007 0.007) (list 0 0 0 0 0))) rep)))) (when copy (setf (dur copy) (quote (1 0.04 0.1))) (setf (kt copy) nil)) copy) nil nil (pairlis (quote (panel-list cur-group-ind show-opt-fields color-list winsize winpos)) (list (list (list "All open" (list 0 (quote t)) (list 1 (quote t)) (list 2 (quote t)) (list 3 (quote t)) (list 4 (quote t)) (list 5 (quote t)) (list 6 (quote t))) (list "All close" (list 0 nil) (list 1 nil) (list 2 nil) (list 3 nil) (list 4 nil) (list 5 nil) (list 6 nil))) 0 (quote t) (list (om-make-color 0 0 0) (om-make-color 0 0 0) (om-make-color 0 0 0) (om-make-color 0 0 0) (om-make-color 0 0 0) (om-make-color 0 0 0) (om-make-color 0 0 0)) (om-make-point 978 784) (om-make-point 10 40))) nil nil nil t))) (when (fboundp (quote set-active)) (set-active box nil)) box))) (quote ((19 0 5 0 nil 0) (4 0 5 1 nil 0) (9 0 6 1 nil 0) (11 0 6 2 nil 0) (8 0 6 3 nil 0) (25 1 6 6 nil 0) (25 2 6 7 nil 0) (25 3 6 8 nil 0) (5 0 7 0 nil 0) (17 0 15 1 nil 0) (18 0 15 2 nil 0) (16 0 15 3 nil 0) (24 1 15 6 nil 0) (24 2 15 7 nil 0) (24 3 15 8 nil 0) (6 0 19 0 nil 0) (15 0 19 1 nil 0) (20 0 19 2 nil 0) (22 0 20 1 nil 0) (21 0 20 2 nil 0) (23 0 20 3 nil 0) (30 0 32 1 nil 0) (31 0 32 2 nil 0) (29 0 32 3 nil 0) (50 0 33 0 nil 0) (37 0 33 1 nil 0) (32 0 33 2 nil 0) (35 0 37 1 nil 0) (34 0 37 2 nil 0) (36 0 37 3 nil 0) (28 1 37 6 nil 0) (28 2 37 7 nil 0) (28 3 37 8 nil 0) (49 0 48 0 nil 0) (33 0 49 0 nil 0) (26 0 49 1 nil 0) (46 0 50 1 nil 0) (42 0 50 2 nil 0) (47 0 50 3 nil 0) (27 1 50 6 nil 0) (27 2 50 7 nil 0) (27 3 50 8 nil 0))) nil 6.15))
