; OM File Header - Saved 2019/07/31 18:24:18
; (6.15 :patc (om-make-point 526.193359375D0 130) (om-make-point 476 144) (om-make-point 751 622) "" 183 0 nil "2019/07/30 18:25:05")
; End File Header
; External resources 
; (list (list (quote :sound) "#P\"../../out-files/ch_12a-fadeinout.aiff\""))
(in-package :om)(load-lib-for (quote ("OM-Chant")))(setf *om-current-persistent* (om-load-patch1 "12a-silence-fadein&out-f0" (quote ((let ((box (om-load-boxcomment "comment" (om-make-point 37 24) (quote ":run") "" (om-make-point 89 350) nil (om-make-color 0 0 0) (om-make-font "Verdana" 10.0 :family "Verdana" :style (quote (:plain)) :mode (quote nil))))) (when (fboundp (quote set-active)) (set-active box nil)) box) (let ((box (om-load-boxcall (quote bastype) "aux 8" (quote t) (quote nil) (om-make-point 324 372) (om-make-point 143 30) "ch_12a-fadeinout-f0" "\"ch_12a-fadeinout-f0\"" nil))) (when (fboundp (quote set-active)) (set-active box nil)) box) (let ((box (om-load-boxcall (quote genfun) "VOWEL-FORMANTS 2" (quote vowel-formants) (quote ((om-load-inputfunmenu1 (quote input-funmenu) "a sung vowel" "VOWEL" (list (quote a) (quote o)) (list (list "Alto A" (list (quote list) (quote (quote a)) (quote (quote a)))) (list "Alto E" (list (quote list) (quote (quote a)) (quote (quote e)))) (list "Alto I" (list (quote list) (quote (quote a)) (quote (quote i)))) (list "Alto O" (list (quote list) (quote (quote a)) (quote (quote o)))) (list "Alto U" (list (quote list) (quote (quote a)) (quote (quote u)))) (list "Bass A" (list (quote list) (quote (quote b)) (quote (quote a)))) (list "Bass E" (list (quote list) (quote (quote b)) (quote (quote e)))) (list "Bass I" (list (quote list) (quote (quote b)) (quote (quote i)))) (list "Bass O" (list (quote list) (quote (quote b)) (quote (quote o)))) (list "Bass U" (list (quote list) (quote (quote b)) (quote (quote u)))) (list "Countertenor A" (list (quote list) (quote (quote c)) (quote (quote a)))) (list "Countertenor E" (list (quote list) (quote (quote c)) (quote (quote e)))) (list "Countertenor I" (list (quote list) (quote (quote c)) (quote (quote i)))) (list "Countertenor O" (list (quote list) (quote (quote c)) (quote (quote o)))) (list "Countertenor U" (list (quote list) (quote (quote c)) (quote (quote u)))) (list "Soprano A" (list (quote list) (quote (quote s)) (quote (quote a)))) (list "Soprano E" (list (quote list) (quote (quote s)) (quote (quote e)))) (list "Soprano I" (list (quote list) (quote (quote s)) (quote (quote i)))) (list "Soprano O" (list (quote list) (quote (quote s)) (quote (quote o)))) (list "Soprano U" (list (quote list) (quote (quote s)) (quote (quote u)))) (list "Tenor A" (list (quote list) (quote (quote t)) (quote (quote a)))) (list "Tenor E" (list (quote list) (quote (quote t)) (quote (quote e)))) (list "Tenor I" (list (quote list) (quote (quote t)) (quote (quote i)))) (list "Tenor O" (list (quote list) (quote (quote t)) (quote (quote o)))) (list "Tenor U" (list (quote list) (quote (quote t)) (quote (quote u)))))))) (om-make-point 213 104) nil nil nil nil 4))) (when (fboundp (quote set-active)) (set-active box nil)) box) (let ((box (om-load-editor-box1 "my_synt.sdif" (quote sdiffile) (quote ((om-load-inputfun (quote input-funbox) "object" "self" nil))) (om-make-point 50 502) (om-make-point 109 59) (let ((newobj (make-instance (quote sdiffile)))) (when newobj) newobj) nil nil (pairlis (quote (winsize winpos)) (list (om-make-point 675 258) (om-make-point 10 40))) nil nil nil nil))) (when (fboundp (quote set-active)) (set-active box nil)) box) (let ((box (om-load-boxcall (quote bastype) "aux 6" (quote t) (quote nil) (om-make-point 92 374) (om-make-point 27 30) nil "nil" nil))) (when (fboundp (quote set-active)) (set-active box nil)) box) (let ((box (om-load-boxcall (quote genfun) "SYNTHESIZE 2" (quote synthesize) (quote ((om-load-inputfun (quote input-funbox) "something to synthesize..." "ELEMENTS" nil) (om-load-inputkeyword (quote input-keyword) "" "run" (quote :run) nil nil) (om-load-inputkeyword (quote input-keyword) "" "name" (quote :name) nil nil))) (om-make-point 72 435) nil nil nil nil 1))) (when (fboundp (quote set-active)) (set-active box nil)) box) (let ((box (om-load-boxcomment "comment" (om-make-point 223 30) (quote "Fade in/out can also apply to F0...") "" (om-make-point 462 45.0) nil (om-make-color 0 0 0) (om-make-font "Verdana" 12 :family "Verdana" :style (quote (:italic)) :mode (quote nil))))) (when (fboundp (quote set-active)) (set-active box nil)) box) (let ((box (om-load-boxcomment "comment" (om-make-point 37 24) (quote "onset") "" (om-make-point 137 106) nil (om-make-color 0 0 0) (om-make-font "Verdana" 10.0 :family "Verdana" :style (quote (:plain)) :mode (quote nil))))) (when (fboundp (quote set-active)) (set-active box nil)) box) (let ((box (om-load-boxcomment "comment" (om-make-point 26 24) (quote "dur") "" (om-make-point 174 125) nil (om-make-color 0 0 0) (om-make-font "Verdana" 10.0 :family "Verdana" :style (quote (:bold)) :mode (quote nil))))) (when (fboundp (quote set-active)) (set-active box nil)) box) (let ((box (om-load-boxcall (quote bastype) "aux 4" (quote t) (quote nil) (om-make-point 146 130) (om-make-point 21 30) 0 "0" nil))) (when (fboundp (quote set-active)) (set-active box nil)) box) (let ((box (om-load-boxcall (quote bastype) "aux 3" (quote t) (quote nil) (om-make-point 86 131) (om-make-point 21 30) 5 "5" nil))) (when (fboundp (quote set-active)) (set-active box nil)) box) (let ((box (om-load-editor-box1 "CH-FOF" (quote ch-fof) (quote ((om-load-inputfun (quote input-funbox) "synthesis event" "self" nil) (om-load-inputfun (quote input-funbox) "number of components (FOFs)" "numcols" 1) (om-load-inputfun (quote input-funbox) "start time [sec]" "action-time" 0) (om-load-inputfun (quote input-funbox) "duration [sec]" "dur" 0) (om-load-inputfun (quote input-funbox) "control period [sec]" "kt" nil) (om-load-inputfun (quote input-funbox) "lambda function applied to each component" "user-fun" nil) (om-load-inputkeyword (quote editor-keyword) "" "freq" (quote :freq) 609.0 nil) (om-load-inputkeyword (quote editor-keyword) "!! Only linear [0.0 -> 1.0]" "amp" (quote :amp) 1.0 nil) (om-load-inputkeyword (quote editor-keyword) "" "bw" (quote :bw) 77.0 nil))) (om-make-point 91 186) (om-make-point 206 61) (let ((copy (if (find-class (quote ch-fof) nil) (let ((rep (make-instance (quote ch-fof) :numcols 5))) (when (member (quote freq) (get-init-slots-of-class (quote ch-fof)) :key (quote car)) (setf (slot-value rep (quote freq)) (list 450 800 2830 3500 4950))) (when (member (quote amp) (get-init-slots-of-class (quote ch-fof)) :key (quote car)) (setf (slot-value rep (quote amp)) (list 1.0 0.3548134 0.15848932 0.03981072 0.0017782794))) (when (member (quote bw) (get-init-slots-of-class (quote ch-fof)) :key (quote car)) (setf (slot-value rep (quote bw)) (list 70 80 100 130 135))) (when (member (quote win) (get-init-slots-of-class (quote ch-fof)) :key (quote car)) (setf (slot-value rep (quote win)) 0.003)) (when (member (quote wdur) (get-init-slots-of-class (quote ch-fof)) :key (quote car)) (setf (slot-value rep (quote wdur)) 0.02)) (when (member (quote wout) (get-init-slots-of-class (quote ch-fof)) :key (quote car)) (setf (slot-value rep (quote wout)) 0.007)) (when (member (quote phs) (get-init-slots-of-class (quote ch-fof)) :key (quote car)) (setf (slot-value rep (quote phs)) 0)) (setf (lcontrols rep) (list)) (setf (action-time rep) 0) (setf (data rep) (list (list 450 800 2830 3500 4950) (list 1.0 0.3548134 0.15848932 0.03981072 0.0017782794) (list 70 80 100 130 135) (list 0.003 0.003 0.003 0.003 0.003) (list 0.02 0.02 0.02 0.02 0.02) (list 0.007 0.007 0.007 0.007 0.007) (list 0 0 0 0 0))) rep)))) (when copy (setf (dur copy) (quote 4)) (setf (kt copy) nil)) copy) nil nil (pairlis (quote (winpos winsize color-list show-opt-fields cur-group-ind panel-list)) (list (om-make-point 10 40) (om-make-point 978 784) (list (om-make-color 0 0 0) (om-make-color 0 0 0) (om-make-color 0 0 0) (om-make-color 0 0 0) (om-make-color 0 0 0) (om-make-color 0 0 0) (om-make-color 0 0 0)) (quote t) 0 (list (list "All open" (list 0 (quote t)) (list 1 (quote t)) (list 2 (quote t)) (list 3 (quote t)) (list 4 (quote t)) (list 5 (quote t)) (list 6 (quote t))) (list "All close" (list 0 nil) (list 1 nil) (list 2 nil) (list 3 nil) (list 4 nil) (list 5 nil) (list 6 nil))))) nil nil nil t))) (when (fboundp (quote set-active)) (set-active box nil)) box) (let ((box (om-load-boxcall (quote bastype) "aux 2" (quote t) (quote nil) (om-make-point 171 149) (om-make-point 21 30) 4 "4" nil))) (when (fboundp (quote set-active)) (set-active box nil)) box) (let ((box (om-load-editor-box1 "ch_12a-fadeinout.aiff" (quote sound) (quote ((om-load-inputfun (quote input-funbox) "object" "self" nil) (om-load-inputfun (quote input-funbox) "a track index for multichannel mixing" "tracknum" 1) (om-load-inputfun (quote input-funbox) "a list of markers (s)" "markers" nil))) (om-make-point 201 517) (om-make-point 295 81) (let ((newobj (let ((thesound (load-sound (om-make-pathname :directory (quote (:relative "out-files")) :device :unspecific :host nil :name "ch_12a-fadeinout" :type "aiff") 1 1.0 0))) (when thesound (setf (markers thesound) (quote nil))) thesound))) (load-port-info newobj (quote nil)) (init-mus-color newobj (quote nil)) (set-extra-pairs newobj (quote nil)) (set-patch-pairs newobj (quote nil)) (set-name newobj "ch_12a-fadeinout.aiff") (set-tonalite newobj nil) newobj) nil nil (pairlis (quote (palette-mode scale show-stems obj-mode score-mode winpos winsize mode grillestep notechancolor? zoom player inport outport deltapict cmnpref staff fontsize approx)) (list 0 nil (quote t) 1 0 (om-make-point 329 128) (om-make-point 1111 664) 0 1000 nil 1 (quote :libaudio) 0 nil (om-make-point 0 0) (let ((newobj (make-instance (quote edition-values)))) (setf (paper-size newobj) (om-make-point 600 800)) (setf (top-margin newobj) 2) (setf (left-margin newobj) 1) (setf (right-margin newobj) 1) (setf (bottom-margin newobj) 1) (setf (orientation newobj) nil) (setf (scale newobj) nil) (setf (system-space newobj) (quote (1))) (setf (system-color newobj) (quote nil)) (setf (line-space newobj) 1) (setf (title newobj) nil) (setf (show-title? newobj) nil) (setf (show-page? newobj) nil) (setf (sheet-id newobj) nil) (setf (page-mode newobj) nil) newobj) (quote g) 24 2)) t nil nil nil))) (when (fboundp (quote set-active)) (set-active box nil)) box) (let ((box (om-load-boxcall (quote genfun) "SYNTHESIZE" (quote synthesize) (quote ((om-load-inputfun (quote input-funbox) "something to synthesize..." "ELEMENTS" nil) (om-load-inputkeyword (quote input-keyword) "" "name" (quote :name) nil nil))) (om-make-point 293 436) nil nil nil nil 1))) (when (fboundp (quote set-active)) (set-active box nil)) box) (let ((box (om-load-boxcall (quote genfun) "X-APPEND" (quote x-append) (quote ((om-load-inputfun (quote input-funbox) "first element" "L1?" nil) (om-load-inputfun (quote input-funbox) "second element" "L2?" nil))) (om-make-point 226 320) nil nil nil nil 1))) (when (fboundp (quote set-active)) (set-active box nil)) box) (let ((box (om-load-boxcall (quote lispfun) "LIST" (quote list) (quote ((om-load-inputfun (quote input-funbox) "add-input" "add-input" 1) (om-load-inputfun (quote input-funbox) "add-input" "add-input" 2) (om-load-inputfun (quote input-funbox) "add-input" "add-input" 3))) (om-make-point 425 224) (om-make-point 87 41) nil nil nil 1))) (when (fboundp (quote set-active)) (set-active box nil)) box) (let ((box (om-load-boxcall (quote bastype) "aux" (quote t) (quote nil) (om-make-point 604 78.0) (om-make-point 86 30) (list 0.6 0.1 0.1) "(0.6 0.1 0.1)" nil))) (when (fboundp (quote set-active)) (set-active box nil)) box) (let ((box (om-load-boxcall (quote bastype) "aux 7" (quote t) (quote nil) (om-make-point 663 113.0) (om-make-point 46 30) 220.0 "220.0" nil))) (when (fboundp (quote set-active)) (set-active box nil)) box) (let ((box (om-load-boxcall (quote bastype) "aux 5" (quote t) (quote nil) (om-make-point 598 112.0) (om-make-point 32 30) 2.2 "2.2" nil))) (when (fboundp (quote set-active)) (set-active box nil)) box) (let ((box (om-load-editor-box1 "CH-F0" (quote ch-f0) (quote ((om-load-inputfun (quote input-funbox) "object" "self" nil) (om-load-inputfun (quote input-funbox) "start time [sec]" "action-time" 0) (om-load-inputfun (quote input-funbox) "duration [sec]" "dur" 0) (om-load-inputfun (quote input-funbox) "fundamental frequency value(s) [Hz]" "f0" 110.0))) (om-make-point 585 147) (om-make-point 96 62) (if (find-class (quote ch-f0) nil) (let ((newobj (make-instance (quote ch-f0) :action-time 2.2 :dur (list 0.6 0.1 0.1) :f0 220.0 :from-file t))) (load-port-info newobj (quote nil)) (init-mus-color newobj (quote nil)) (set-extra-pairs newobj (quote nil)) (set-patch-pairs newobj (quote nil)) (set-name newobj nil) (set-tonalite newobj nil) newobj)) nil nil (pairlis (quote (palette-mode scale show-stems obj-mode score-mode winpos winsize mode grillestep notechancolor? zoom player inport outport deltapict cmnpref staff fontsize approx)) (list 0 nil (quote t) 1 0 (om-make-point 400 20) (om-make-point 370 280) 0 1000 nil 1 (quote :midishare) 0 nil (om-make-point 0 0) (let ((newobj (make-instance (quote edition-values)))) (setf (paper-size newobj) (om-make-point 600 800)) (setf (top-margin newobj) 2) (setf (left-margin newobj) 1) (setf (right-margin newobj) 1) (setf (bottom-margin newobj) 1) (setf (orientation newobj) nil) (setf (scale newobj) nil) (setf (system-space newobj) (quote (1))) (setf (system-color newobj) (quote nil)) (setf (line-space newobj) 1) (setf (title newobj) nil) (setf (show-title? newobj) nil) (setf (show-page? newobj) nil) (setf (sheet-id newobj) nil) (setf (page-mode newobj) nil) newobj) (quote g) 24 2)) t nil nil t))) (when (fboundp (quote set-active)) (set-active box nil)) box) (let ((box (om-load-editor-box1 "CH-F0" (quote ch-f0) (quote ((om-load-inputfun (quote input-funbox) "object" "self" nil) (om-load-inputfun (quote input-funbox) "start time [sec]" "action-time" 0) (om-load-inputfun (quote input-funbox) "duration [sec]" "dur" 0) (om-load-inputfun (quote input-funbox) "fundamental frequency value(s) [Hz]" "f0" 110.0))) (om-make-point 452 148) (om-make-point 96 62) (if (find-class (quote ch-f0) nil) (let ((newobj (make-instance (quote ch-f0) :action-time 1 :dur (list 1 0.4 0.4) :f0 300.0 :from-file t))) (load-port-info newobj (quote nil)) (init-mus-color newobj (quote nil)) (set-extra-pairs newobj (quote nil)) (set-patch-pairs newobj (quote nil)) (set-name newobj nil) (set-tonalite newobj nil) newobj)) nil nil (pairlis (quote (palette-mode scale show-stems obj-mode score-mode winpos winsize mode grillestep notechancolor? zoom player inport outport deltapict cmnpref staff fontsize approx)) (list 0 nil (quote t) 1 0 (om-make-point 400 20) (om-make-point 370 280) 0 1000 nil 1 (quote :midishare) 0 nil (om-make-point 0 0) (let ((newobj (make-instance (quote edition-values)))) (setf (paper-size newobj) (om-make-point 600 800)) (setf (top-margin newobj) 2) (setf (left-margin newobj) 1) (setf (right-margin newobj) 1) (setf (bottom-margin newobj) 1) (setf (orientation newobj) nil) (setf (scale newobj) nil) (setf (system-space newobj) (quote (1))) (setf (system-color newobj) (quote nil)) (setf (line-space newobj) 1) (setf (title newobj) nil) (setf (show-title? newobj) nil) (setf (show-page? newobj) nil) (setf (sheet-id newobj) nil) (setf (page-mode newobj) nil) newobj) (quote g) 24 2)) t nil nil t))) (when (fboundp (quote set-active)) (set-active box nil)) box) (let ((box (om-load-boxcall (quote bastype) "aux 5" (quote t) (quote nil) (om-make-point 478 108.0) (om-make-point 21 30) 1 "1" nil))) (when (fboundp (quote set-active)) (set-active box nil)) box) (let ((box (om-load-boxcall (quote bastype) "aux 7" (quote t) (quote nil) (om-make-point 532 106.0) (om-make-point 46 30) 300.0 "300.0" nil))) (when (fboundp (quote set-active)) (set-active box nil)) box) (let ((box (om-load-boxcall (quote bastype) "aux" (quote t) (quote nil) (om-make-point 473 76.0) (om-make-point 75 30) (list 1 0.4 0.4) "(1 0.4 0.4)" nil))) (when (fboundp (quote set-active)) (set-active box nil)) box) (let ((box (om-load-boxcall (quote bastype) "aux 7" (quote t) (quote nil) (om-make-point 415 105.0) (om-make-point 46 30) 110.0 "110.0" nil))) (when (fboundp (quote set-active)) (set-active box nil)) box) (let ((box (om-load-boxcall (quote bastype) "aux 5" (quote t) (quote nil) (om-make-point 356 107.0) (om-make-point 21 30) 0 "0" nil))) (when (fboundp (quote set-active)) (set-active box nil)) box) (let ((box (om-load-boxcall (quote bastype) "aux" (quote t) (quote nil) (om-make-point 346 78.0) (om-make-point 86 30) (list 0.8 0.1 0.1) "(0.8 0.1 0.1)" nil))) (when (fboundp (quote set-active)) (set-active box nil)) box) (let ((box (om-load-editor-box1 "CH-F0" (quote ch-f0) (quote ((om-load-inputfun (quote input-funbox) "object" "self" nil) (om-load-inputfun (quote input-funbox) "start time [sec]" "action-time" 0) (om-load-inputfun (quote input-funbox) "duration [sec]" "dur" 0) (om-load-inputfun (quote input-funbox) "fundamental frequency value(s) [Hz]" "f0" 110.0))) (om-make-point 330 147) (om-make-point 96 62) (if (find-class (quote ch-f0) nil) (let ((newobj (make-instance (quote ch-f0) :action-time 0 :dur (list 0.8 0.1 0.1) :f0 110.0 :from-file t))) (load-port-info newobj (quote nil)) (init-mus-color newobj (quote nil)) (set-extra-pairs newobj (quote nil)) (set-patch-pairs newobj (quote nil)) (set-name newobj nil) (set-tonalite newobj nil) newobj)) nil nil (pairlis (quote (palette-mode scale show-stems obj-mode score-mode winpos winsize mode grillestep notechancolor? zoom player inport outport deltapict cmnpref staff fontsize approx)) (list 0 nil (quote t) 1 0 (om-make-point 400 20) (om-make-point 370 280) 0 1000 nil 1 (quote :midishare) 0 nil (om-make-point 0 0) (let ((newobj (make-instance (quote edition-values)))) (setf (paper-size newobj) (om-make-point 600 800)) (setf (top-margin newobj) 2) (setf (left-margin newobj) 1) (setf (right-margin newobj) 1) (setf (bottom-margin newobj) 1) (setf (orientation newobj) nil) (setf (scale newobj) nil) (setf (system-space newobj) (quote (1))) (setf (system-color newobj) (quote nil)) (setf (line-space newobj) 1) (setf (title newobj) nil) (setf (show-title? newobj) nil) (setf (show-page? newobj) nil) (setf (sheet-id newobj) nil) (setf (page-mode newobj) nil) newobj) (quote g) 24 2)) t nil nil t))) (when (fboundp (quote set-active)) (set-active box nil)) box) (let ((box (om-load-boxcomment "comment" (om-make-point 175 31) (quote "The basic CHANT sounds") "" (om-make-point 142 6) nil (om-make-color 0 0 0) (om-make-font "Verdana" 12 :family "Verdana" :style (quote (:bold)) :mode (quote nil))))) (when (fboundp (quote set-active)) (set-active box nil)) box))) (quote ((5 0 3 0 nil 0) (15 0 5 0 nil 0) (4 0 5 1 nil 0) (1 0 5 2 nil 0) (10 0 11 1 nil 0) (9 0 11 2 nil 0) (12 0 11 3 nil 0) (2 1 11 6 nil 0) (2 2 11 7 nil 0) (2 3 11 8 nil 0) (14 0 13 0 nil 0) (15 0 14 0 nil 0) (1 0 14 1 nil 0) (11 0 15 0 nil 0) (16 0 15 1 nil 0) (28 0 16 0 nil 0) (21 0 16 1 nil 0) (20 0 16 2 nil 0) (19 0 20 1 nil 0) (17 0 20 2 nil 0) (18 0 20 3 nil 0) (22 0 21 1 nil 0) (24 0 21 2 nil 0) (23 0 21 3 nil 0) (26 0 28 1 nil 0) (27 0 28 2 nil 0) (25 0 28 3 nil 0))) nil 6.15))
