; OM File Header - Saved 2012/11/12 19:31:18
; (6.060012 :patc (om-make-point 380 310) (om-make-point 38 30) (om-make-point 708 684) "" 183 0 "2012/10/02 13:58:03" "2012/11/08 17:42:46")
; End File Header
; External resources 
; (list (list (quote :sound) "../../../out-files/my_synt.aiff") (list (quote :sdif) "../../../out-files/my_synt.sdif"))
(in-package :om)(load-lib-for (quote ("OM-Chant")))(setf *om-current-persistent* (om-load-patch1 "25-chant-chord-seq" (quote ((om-load-boxcomment "comment" (om-make-point 80 26) (quote "FOF vowels") "" (om-make-point 474 290) nil (om-make-color 0 0 0) (om-make-font "Verdana" 11.0 :family "Verdana" :style (quote (:plain)) :mode (quote nil))) (om-load-boxcomment "comment" (om-make-point 177 65) (quote "<= \"STACCATO vs LEGATO\":$OPEN THE LOOP AND MODIFY THE DURATION FADE-IN/FADE OUT") nil (om-make-point 336 378) nil (om-make-color 0 0 0) (om-make-font "Verdana" 11.0 :family "Verdana" :style (quote (:plain)) :mode (quote nil))) (om-load-boxcall (quote genfun) "FLAT" (quote flat) (quote ((om-load-inputfun (quote input-funbox) "a list" "LST" nil))) (om-make-point 279 229) nil nil nil nil 1) (om-load-boxcomment "comment" (om-make-point 204 41) (quote "!! chord-seq is in ms / midicents, $synthesis is in seconds/Hz") "" (om-make-point 338 232) nil (om-make-color 0 0 0) (om-make-font "Verdana" 11.0 :family "Verdana" :style (quote (:plain)) :mode (quote nil))) (om-load-boxcomment "comment" (om-make-point 232 73) (quote "CHORD-SEQ:$=> mind avoiding overlaps between the note's onsets and durations$(or check the \"transition\" examples)") "" (om-make-point 399 104) nil (om-make-color 0 0 0) (om-make-font "Verdana" 11.0 :family "Verdana" :style (quote (:plain)) :mode (quote nil))) (om-load-boxcomment "comment" (om-make-point 395 32) (quote "Using Chord-Seq as a control structure for OM-Chant") "" (om-make-point 86 28) nil (om-make-color 0 0 0) (om-make-font "Verdana" 13.0 :family "Verdana" :style (quote (:bold)) :mode (quote nil))) (om-load-boxcall (quote bastype) "list 2" (quote list) (quote nil) (om-make-point 339 292) (om-make-point 133 55) (list (list (quote s) (quote e)) (list (quote s) (quote o)) (list (quote s) (quote e)) (list (quote s) (quote o)) (list (quote s) (quote e)) (list (quote s) (quote o)) (list (quote s) (quote e)) (list (quote s) (quote o))) "((s e)(s o)(s e)(s o)(s e)(s o)(s e)(s o))" nil) (om-load-boxcall (quote genfun) "MS->SEC" (quote ms->sec) (quote ((om-load-inputfun (quote input-funbox) "milliseconds" "N" 0))) (om-make-point 261 291) nil nil nil nil 1) (om-load-boxcall (quote genfun) "MS->SEC" (quote ms->sec) (quote ((om-load-inputfun (quote input-funbox) "milliseconds" "N" 0))) (om-make-point 211 253) nil nil nil nil 1) (om-load-boxwithed1 (quote box-with-win) "OMLOOP" (quote omloop) (quote ((om-load-inputfun (quote input-funbox) "" "freqs" nil) (om-load-inputfun (quote input-funbox) "" "onsets" nil) (om-load-inputfun (quote input-funbox) "" "durs" nil) (om-load-inputfun (quote input-funbox) "" "vowels" nil))) (om-make-point 218 367) nil nil nil (list (om-load-boxcomment "comment" (om-make-point 207 55) (quote "REMOVE THE FADE IN/OUT TO LINK THE NOTES AND PRODUCE A \"LEGATO\" EFFECT") nil (om-make-point 456 141) nil (om-make-color 0 0 0) (om-make-font "Verdana" 11.0 :family "Verdana" :style (quote (:bold)) :mode (quote nil))) (om-load-boxcomment "comment" (om-make-point 129 26) (quote "fade in/out duration") nil (om-make-point 533 195) nil (om-make-color 0 0 0) (om-make-font "Verdana" 11.0 :family "Verdana" :style (quote (:plain)) :mode (quote nil))) (om-load-boxcall (quote bastype) "aux" (quote t) (quote nil) (om-make-point 573 220) (om-make-point 38 30) 0.1 "0.1" nil) (om-load-boxcall (quote lispfun) "LIST 2" (quote list) (quote ((om-load-inputfun (quote input-funbox) "add-input" "add-input" nil) (om-load-inputfun (quote input-funbox) "add-input" "add-input" nil) (om-load-inputfun (quote input-funbox) "add-input" "add-input" nil))) (om-make-point 553 269) (om-make-point 60 41) nil nil nil 1) (om-load-boxcall (quote lispfun) "LENGTH" (quote length) (quote ((om-load-inputfun (quote input-funbox) "SEQUENCE" "SEQUENCE" nil))) (om-make-point 448 372) nil nil nil nil 1) (om-load-boxcomment "comment" (om-make-point 166 51) (quote "Generate a CH-FOF and a CH-F0 for each note in the CHORD-SEQ") "" (om-make-point 47 483) nil (om-make-color 0 0 0) (om-make-font "Verdana" 11.0 :family "Verdana" :style (quote (:plain)) :mode (quote nil))) (om-load-boxcall (quote genfun) "FLAT" (quote flat) (quote ((om-load-inputfun (quote input-funbox) "a list" "LST" nil))) (om-make-point 449 560) nil nil nil nil 1) (om-load-editor-box1 "CH-FOF" (quote ch-fof) (quote ((om-load-inputfun (quote input-funbox) "synthesis event" "self" nil) (om-load-inputfun (quote input-funbox) "number of components (FOFs)" "numcols" 1) (om-load-inputfun (quote input-funbox) "start time [sec]" "action-time" 0) (om-load-inputfun (quote input-funbox) "duration [sec]" "dur" 0) (om-load-inputfun (quote input-funbox) "control period [sec]" "kt" nil) (om-load-inputfun (quote input-funbox) "lambda function applied to each component" "user-fun" nil) (om-load-inputkeyword (quote editor-keyword) "FOF frequency(-ies) [Hz]" "freq" (quote :freq) 609.0 nil) (om-load-inputkeyword (quote editor-keyword) "FOF amplitudes !! Only linear [0.0 -> 1.0]" "amp" (quote :amp) 1.0 nil) (om-load-inputkeyword (quote editor-keyword) "FOF bandwidth(s) [Hz]" "bw" (quote :bw) 77.0 nil))) (om-make-point 525 378) (om-make-point 135 53) (let ((copy (if (find-class (quote ch-fof) nil) (let ((rep (make-instance (quote ch-fof) :numcols 1))) (when (member (quote freq) (get-init-slots-of-class (quote ch-fof)) :key (quote car)) (setf (slot-value rep (quote freq)) 609.0)) (when (member (quote amp) (get-init-slots-of-class (quote ch-fof)) :key (quote car)) (setf (slot-value rep (quote amp)) 1.0)) (when (member (quote bw) (get-init-slots-of-class (quote ch-fof)) :key (quote car)) (setf (slot-value rep (quote bw)) 77.0)) (when (member (quote win) (get-init-slots-of-class (quote ch-fof)) :key (quote car)) (setf (slot-value rep (quote win)) 0.003)) (when (member (quote wdur) (get-init-slots-of-class (quote ch-fof)) :key (quote car)) (setf (slot-value rep (quote wdur)) 0.02)) (when (member (quote wout) (get-init-slots-of-class (quote ch-fof)) :key (quote car)) (setf (slot-value rep (quote wout)) 0.007)) (when (member (quote phs) (get-init-slots-of-class (quote ch-fof)) :key (quote car)) (setf (slot-value rep (quote phs)) 0)) (setf (lcontrols rep) (list)) (setf (action-time rep) 0) (setf (data rep) (list (list 609.0) (list 1.0) (list 77.0) (list 0.003) (list 0.02) (list 0.007) (list 0))) rep)))) (when copy (setf (dur copy) (quote 0)) (setf (kt copy) nil)) copy) nil nil (pairlis (quote (panel-list cur-group-ind show-opt-fields color-list winsize winpos)) (list (list (list "All open" (list 0 (quote t)) (list 1 (quote t)) (list 2 (quote t)) (list 3 (quote t)) (list 4 (quote t)) (list 5 (quote t)) (list 6 (quote t))) (list "All close" (list 0 nil) (list 1 nil) (list 2 nil) (list 3 nil) (list 4 nil) (list 5 nil) (list 6 nil))) 0 (quote t) (list (om-make-color 0 0 0) (om-make-color 0 0 0) (om-make-color 0 0 0) (om-make-color 0 0 0) (om-make-color 0 0 0) (om-make-color 0 0 0) (om-make-color 0 0 0)) (om-make-point 500 280) (om-make-point 10 40))) nil nil nil t) (om-load-boxcall (quote genfun) "VOWEL-FORMANTS" (quote vowel-formants) (quote ((om-load-inputfunmenu1 (quote input-funmenu) "a sung vowel" "VOWEL" (list (quote a) (quote a)) (list (list "Alto A" (list (quote list) (quote (quote a)) (quote (quote a)))) (list "Alto E" (list (quote list) (quote (quote a)) (quote (quote e)))) (list "Alto I" (list (quote list) (quote (quote a)) (quote (quote i)))) (list "Alto O" (list (quote list) (quote (quote a)) (quote (quote o)))) (list "Alto U" (list (quote list) (quote (quote a)) (quote (quote u)))) (list "Bass A" (list (quote list) (quote (quote b)) (quote (quote a)))) (list "Bass E" (list (quote list) (quote (quote b)) (quote (quote e)))) (list "Bass I" (list (quote list) (quote (quote b)) (quote (quote i)))) (list "Bass O" (list (quote list) (quote (quote b)) (quote (quote o)))) (list "Bass U" (list (quote list) (quote (quote b)) (quote (quote u)))) (list "Countertenor A" (list (quote list) (quote (quote c)) (quote (quote a)))) (list "Countertenor E" (list (quote list) (quote (quote c)) (quote (quote e)))) (list "Countertenor I" (list (quote list) (quote (quote c)) (quote (quote i)))) (list "Countertenor O" (list (quote list) (quote (quote c)) (quote (quote o)))) (list "Countertenor U" (list (quote list) (quote (quote c)) (quote (quote u)))) (list "Soprano A" (list (quote list) (quote (quote s)) (quote (quote a)))) (list "Soprano E" (list (quote list) (quote (quote s)) (quote (quote e)))) (list "Soprano I" (list (quote list) (quote (quote s)) (quote (quote i)))) (list "Soprano O" (list (quote list) (quote (quote s)) (quote (quote o)))) (list "Soprano U" (list (quote list) (quote (quote s)) (quote (quote u)))) (list "Tenor A" (list (quote list) (quote (quote t)) (quote (quote a)))) (list "Tenor E" (list (quote list) (quote (quote t)) (quote (quote e)))) (list "Tenor I" (list (quote list) (quote (quote t)) (quote (quote i)))) (list "Tenor O" (list (quote list) (quote (quote t)) (quote (quote o)))) (list "Tenor U" (list (quote list) (quote (quote t)) (quote (quote u)))))) (om-load-inputfunmenu1 (quote input-funmenu) "amplitude units" "AMP" (quote lin) (list (list "dB" (quote (quote db))) (list "linear" (quote (quote lin))))))) (om-make-point 587 318) nil nil nil nil 4) (om-load-boxin "vowels" 3 (om-make-point 687 153) "" "vowels" nil nil) (om-load-editor-box1 "BPF 2" (quote bpf) (quote ((om-load-inputfun (quote input-funbox) "object" "self" nil) (om-load-inputfun (quote input-funbox) "X coordinates (list)" "x-points" (list 0 0.5 1)) (om-load-inputfun (quote input-funbox) "Y coordinates (list)" "y-points" (list 0.01 0.06 0.01)) (om-load-inputfun (quote input-funbox) "precision (integer) [0 - 10]" "decimals" 4))) (om-make-point 198 187) (om-make-point 34 44) (let ((newobj (when (find-class (quote bpf) nil) (let ((newbpf (simple-bpf-from-list (quote (0.0 0.5 1.0)) (quote (0.01 0.06 0.01)) (quote bpf) 4))) (setf (bpfcolor newbpf) (om-make-color 0 0 0)) (set-name newbpf nil) newbpf)))) newobj) nil nil (pairlis (quote (winsize winpos picture)) (list (om-make-point 335 275) (om-make-point 10 40) nil)) t nil nil nil) (om-load-editor-box1 "BPF" (quote bpf) (quote ((om-load-inputfun (quote input-funbox) "object" "self" nil) (om-load-inputfun (quote input-funbox) "X coordinates (list)" "x-points" (list 0 1 2)) (om-load-inputfun (quote input-funbox) "Y coordinates (list)" "y-points" (list 5 7 6)) (om-load-inputfun (quote input-funbox) "precision (integer) [0 - 10]" "decimals" 3))) (om-make-point 156 163) (om-make-point 38 48) (let ((newobj (when (find-class (quote bpf) nil) (let ((newbpf (simple-bpf-from-list (quote (0.0 1.0 2.0)) (quote (5.0 7.0 6.0)) (quote bpf) 3))) (setf (bpfcolor newbpf) (om-make-color 0 0 0)) (set-name newbpf nil) newbpf)))) newobj) "x" nil (pairlis (quote (winsize winpos picture)) (list (om-make-point 335 275) (om-make-point 10 40) nil)) t nil nil nil) (om-load-boxcall (quote genfun) "inlist 4" (quote listloop) (quote ((om-load-inputfun (quote input-funbox) "list to iterate" "LIST" nil))) (om-make-point 685 233) nil nil nil nil 1) (om-load-editor-box1 "CH-F0" (quote ch-f0) (quote ((om-load-inputfun (quote input-funbox) "object" "self" nil) (om-load-inputfun (quote input-funbox) "start time [sec]" "action-time" 0) (om-load-inputfun (quote input-funbox) "duration [sec]" "dur" 0) (om-load-inputfun (quote input-funbox) "fundamental frequency value(s) [Hz]" "f0" 110.0))) (om-make-point 252 351) (om-make-point 70 50) (if (find-class (quote ch-f0) nil) (let ((newobj (make-instance (quote ch-f0) :action-time 0 :dur 0 :f0 110.0 :from-file t))) (load-port-info newobj (quote nil)) (init-mus-color newobj (quote nil)) (set-extra-pairs newobj (quote nil)) (set-patch-pairs newobj (quote nil)) (set-name newobj nil) (set-tonalite newobj nil) newobj)) nil nil (pairlis (quote (approx fontsize staff cmnpref deltapict outport inport player zoom notechancolor? grillestep mode winsize winpos score-mode obj-mode show-stems scale palette-mode)) (list 2 24 (quote g) (let ((newobj (make-instance (quote edition-values)))) (setf (paper-size newobj) (om-make-point 600 800)) (setf (top-margin newobj) 2) (setf (left-margin newobj) 1) (setf (right-margin newobj) 1) (setf (bottom-margin newobj) 1) (setf (orientation newobj) nil) (setf (scale newobj) nil) (setf (system-space newobj) (quote (1))) (setf (system-color newobj) (quote nil)) (setf (line-space newobj) 1) (setf (title newobj) nil) (setf (show-title? newobj) nil) (setf (show-page? newobj) nil) (setf (sheet-id newobj) nil) (setf (page-mode newobj) nil) newobj) (om-make-point 0 0) nil 0 (quote :midishare) 1 nil 1000 0 (om-make-point 370 280) (om-make-point 400 20) 0 1 (quote t) nil 0)) nil nil nil t) (om-load-boxcall (quote genfun) "collect" (quote listing) (quote ((om-load-inputfun (quote input-funbox) "anything" "DATA" nil))) (om-make-point 409 499) nil nil nil nil 3) (om-load-boxcall (quote lispfun) "LIST" (quote list) (quote ((om-load-inputfun (quote input-funbox) "add-input" "add-input" nil) (om-load-inputfun (quote input-funbox) "add-input" "add-input" nil))) (om-make-point 421 446) nil nil nil nil 1) (om-load-boxcall (quote genfun) "inlist 3" (quote listloop) (quote ((om-load-inputfun (quote input-funbox) "list to iterate" "LIST" nil))) (om-make-point 367 154) nil nil nil nil 1) (om-load-boxcall (quote genfun) "inlist 2" (quote listloop) (quote ((om-load-inputfun (quote input-funbox) "list to iterate" "LIST" nil))) (om-make-point 258 154) nil nil nil nil 1) (om-load-boxcall (quote genfun) "inlist" (quote listloop) (quote ((om-load-inputfun (quote input-funbox) "list to iterate" "LIST" nil))) (om-make-point 97 154) nil nil nil nil 1) (om-load-boxcall (quote genfun) "PARAM-PROCESS" (quote param-process) (quote ((om-load-inputfun (quote input-funbox) "" "INITVAL" nil) (om-load-inputfun (quote input-funbox) "" "FUNCTION" nil) (om-load-inputfun (quote input-funbox) "" "DURATION" nil) (om-load-inputfun (quote input-funbox) "" "KT" 0.01) (om-load-inputfunmenu1 (quote input-funmenu) "" "OP" (quote a) (list (list "add" (quote (quote a))) (list "multiply" (quote (quote m))))))) (om-make-point 103 285) nil nil nil nil 1) (om-load-boxcall (quote genfun) "VIBRATO" (quote vibrato) (quote ((om-load-inputfun (quote input-funbox) "vibrato frequency(-ies)" "FREQS" 6.0) (om-load-inputfun (quote input-funbox) "vibrato amplitude(s)" "AMPS" 0.06))) (om-make-point 146 230) nil nil nil nil 1) (om-load-boxin "durs" 2 (om-make-point 377 70) "" "durs" nil nil) (om-load-boxin "onsets" 1 (om-make-point 262 78) "" "onsets" nil nil) (om-load-boxin "freqs" 0 (om-make-point 105 76) "" "freqs" nil nil) (om-load-seqbox "finally" (quote finaldo) (quote ((om-load-inputfun (quote input-funbox) "value to return" "VAL" nil))) (om-make-point 439 621) nil nil nil 0) (om-load-seqbox "eachTime" (quote loopdo) (quote ((om-load-inputfun (quote input-funbox) "operations to do" "OP" nil))) (om-make-point 358 571) nil nil nil 0)) (quote ((16 0 3 0 nil 0) (2 0 3 1 nil 0) (2 0 3 2 nil 0) (8 0 4 0 nil 0) (14 1 6 0 nil 0) (4 0 7 1 nil 0) (17 0 7 2 nil 0) (3 0 7 3 nil 0) (8 1 7 6 nil 0) (8 2 7 7 nil 0) (8 3 7 8 nil 0) (12 0 8 0 nil 0) (9 0 12 0 nil 0) (17 0 13 1 nil 0) (19 0 13 3 nil 0) (15 0 14 0 nil 0) (13 0 15 0 nil 0) (7 0 15 1 nil 0) (21 0 16 0 nil 0) (22 0 17 0 nil 0) (23 0 18 0 nil 0) (18 0 19 0 nil 0) (20 0 19 1 nil 0) (16 0 19 2 nil 0) (11 0 20 0 nil 0) (10 0 20 1 nil 0) (6 0 24 0 nil 0) (14 0 25 0 nil 0))) 1 "omloop" nil) (om-load-boxcall (quote genfun) "FLAT" (quote flat) (quote ((om-load-inputfun (quote input-funbox) "a list" "LST" nil))) (om-make-point 170 218) nil nil nil nil 1) (om-load-editor-box1 "CHORD-SEQ" (quote chord-seq) (quote ((om-load-inputfun (quote input-funbox) "object" "self" nil) (om-load-inputfun (quote input-funbox) "pitches (mc): list or list of lists" "lmidic" (list 6000)) (om-load-inputfun (quote input-funbox) "onsets (ms): list" "lonset" (list 0 1000)) (om-load-inputfun (quote input-funbox) "durations (ms): list or list of lists" "ldur" (list 1000)) (om-load-inputfun (quote input-funbox) "velocities (0-127): list or list of lists" "lvel" (list 100)) (om-load-inputfun (quote input-funbox) "offsets (ms): list or list of lists" "loffset" (list 0)) (om-load-inputfun (quote input-funbox) "MIDI channels (1-16): list or list of lists" "lchan" (list 1)) (om-load-inputfun (quote input-funbox) "relative chords duration (0-100)" "legato" 0))) (om-make-point 167 101) (om-make-point 229 103) (let ((newobj (when (find-class (quote chord-seq) nil) (make-instance (quote chord-seq) :lmidic (quote ((6300) (6700) (7200) (6400) (5900) (6500) (7300) (6400))) :lonset (quote (0 888 1514 2028 2750 3625 4500 5680 6480)) :ldur (quote ((500) (500) (400) (600) (700) (300) (800) (800))) :lvel (quote ((100) (100) (100) (100) (100) (100) (100) (100))) :loffset (quote ((0) (0) (0) (0) (0) (0) (0) (0))) :lchan (quote ((1) (1) (1) (1) (1) (1) (1) (1))) :legato 0)))) (load-port-info newobj (quote ((0) (0) (0) (0) (0) (0) (0) (0)))) (init-mus-color newobj (quote nil)) (set-extra-pairs newobj (quote nil)) (set-patch-pairs newobj (quote ((nil (om-load-patch-abs1 "patch" (quote nil) (quote nil) 6.060012 nil "" (om-make-point 200 200) (om-make-point 400 500)))))) (set-name newobj nil) (set-tonalite newobj nil) newobj) "x" nil (pairlis (quote (palette-mode scale show-stems obj-mode score-mode winpos winsize mode grillestep notechancolor? zoom player inport outport deltapict cmnpref staff fontsize approx)) (list 0 nil (quote t) 1 0 (om-make-point 400 22) (om-make-point 541 303) 0 1000 nil 1 (quote :midishare) 0 nil (om-make-point 0 0) (let ((newobj (make-instance (quote edition-values)))) (setf (paper-size newobj) (om-make-point 600 800)) (setf (top-margin newobj) 2) (setf (left-margin newobj) 1) (setf (right-margin newobj) 1) (setf (bottom-margin newobj) 1) (setf (orientation newobj) nil) (setf (scale newobj) nil) (setf (system-space newobj) (quote (1))) (setf (system-color newobj) (quote nil)) (setf (line-space newobj) 1) (setf (title newobj) nil) (setf (show-title? newobj) nil) (setf (show-page? newobj) nil) (setf (sheet-id newobj) nil) (setf (page-mode newobj) nil) newobj) (quote g) 24 2)) t nil nil nil) (om-load-boxcall (quote genfun) "MC->F" (quote mc->f) (quote ((om-load-inputfun (quote input-funbox) "pitch or pitch list (midicents)" "MIDICS?" 6000))) (om-make-point 159 287) nil nil nil nil 1) (om-load-boxcall (quote bastype) "aux 4" (quote t) (quote nil) (om-make-point 131 409) (om-make-point 27 30) nil "nil" nil) (om-load-editor-box1 "my_synt.sdif" (quote sdiffile) (quote ((om-load-inputfun (quote input-funbox) "object" "self" nil))) (om-make-point 86 516) (om-make-point 70 50) (let ((newobj (load-sdif-file (om-make-pathname :directory (quote (:relative "out-files")) :device :unspecific :host :unspecific :name "my_synt" :type "sdif")))) newobj) nil nil (pairlis (quote (winpos winsize)) (list (om-make-point 117 238) (om-make-point 1336 195))) nil nil nil nil) (om-load-boxcall (quote genfun) "SYNTHESIZE" (quote synthesize) (quote ((om-load-inputfun (quote input-funbox) "something to synthesize..." "ELEMENTS" nil) (om-load-inputkeyword (quote input-keyword) "" "run" (quote :run) nil nil))) (om-make-point 89 439) nil nil nil nil 1) (om-load-editor-box1 "my_synt.aiff" (quote sound) (quote ((om-load-inputfun (quote input-funbox) "object" "self" nil) (om-load-inputfun (quote input-funbox) "a track index for multichannel mixing" "tracknum" 1) (om-load-inputfun (quote input-funbox) "a list of markers (s)" "markers" nil))) (om-make-point 185 508) (om-make-point 192 67) (let ((newobj (let ((thesound (load-sound (om-make-pathname :directory (quote (:relative "out-files")) :device :unspecific :host nil :name "my_synt" :type "aiff") 1))) (when thesound (setf (markers thesound) (quote nil))) thesound))) (load-port-info newobj (quote nil)) (init-mus-color newobj (quote nil)) (set-extra-pairs newobj (quote nil)) (set-patch-pairs newobj (quote nil)) (set-name newobj "my_synt.aiff") (set-tonalite newobj nil) newobj) nil nil (pairlis (quote (approx fontsize staff cmnpref deltapict outport inport player zoom notechancolor? grillestep mode winsize winpos score-mode obj-mode show-stems scale palette-mode)) (list 2 24 (quote g) (let ((newobj (make-instance (quote edition-values)))) (setf (paper-size newobj) (om-make-point 600 800)) (setf (top-margin newobj) 2) (setf (left-margin newobj) 1) (setf (right-margin newobj) 1) (setf (bottom-margin newobj) 1) (setf (orientation newobj) nil) (setf (scale newobj) nil) (setf (system-space newobj) (quote (1))) (setf (system-color newobj) (quote nil)) (setf (line-space newobj) 1) (setf (title newobj) nil) (setf (show-title? newobj) nil) (setf (show-page? newobj) nil) (setf (sheet-id newobj) nil) (setf (page-mode newobj) nil) newobj) (om-make-point 0 0) nil 0 (quote :libaudio) 1 nil 1000 0 (om-make-point 1232 234) (om-make-point 208 0) 0 1 (quote t) nil 0)) t nil nil nil) (om-load-boxcall (quote genfun) "SYNTHESIZE" (quote synthesize) (quote ((om-load-inputfun (quote input-funbox) "something to synthesize..." "ELEMENTS" nil))) (om-make-point 253 439) nil nil nil nil 1))) (quote ((11 3 2 0 nil 0) (2 0 7 0 nil 0) (11 2 8 0 nil 0) (12 0 9 0 nil 0) (8 0 9 1 nil 0) (7 0 9 2 nil 0) (6 0 9 3 nil 0) (11 1 10 0 nil 0) (10 0 12 0 nil 0) (15 0 14 0 nil 0) (9 0 15 0 nil 0) (13 0 15 1 nil 0) (17 0 16 0 nil 0) (9 0 17 0 nil 0))) nil 6.060012))
