; OM File Header - Saved 2012/07/26 11:56:18
; (6.06001 :patc (om-make-point 24 24) (om-make-point 50 50) (om-make-point 500 400) "" 183 0 nil "2012/07/26 11:56:18")
; End File Header
(in-package :om)(load-lib-for (quote ("OM-Chant")))(setf *om-current-persistent* (om-load-patch1 "f0-vib" (quote ((om-load-boxcall (quote genfun) "MAQ-F0-VIB" (quote maq-f0-vib) (quote ((om-load-inputfun (quote input-funbox) "associated temporal box" "TB" nil) (om-load-inputfun (quote input-funbox) "vibrato frequency" "VIBFREQ" 6) (om-load-inputfun (quote input-funbox) "vibrato amplitude/enveloppe" "VIBAMP" 0.2))) (om-make-point 180 153) nil nil nil nil 1) (om-load-boxcomment "comment" (om-make-point 113 94) (quote "Vibrato frequency and amplitude : float or bpf") "" (om-make-point 440 68) nil (om-make-color 0 0 0) (om-make-font "Verdana" 12 :family "Verdana" :style (quote (:plain)) :mode (quote nil))) (om-load-boxcall (quote bastype) "aux" (quote t) (quote nil) (om-make-point 247 100) (om-make-point 26 30) 4 "4" nil) (om-load-editor-box1 "BPF" (quote bpf) (quote ((om-load-inputfun (quote input-funbox) "object" "self" nil) (om-load-inputfun (quote input-funbox) "X coordinates (list)" "x-points" (list 0 1 3 4 5)) (om-load-inputfun (quote input-funbox) "Y coordinates (list)" "y-points" (list 0 100)) (om-load-inputfun (quote input-funbox) "precision (integer) [0 - 10]" "decimals" 3))) (om-make-point 288 62) (om-make-point 130 74) (let ((newobj (when (find-class (quote bpf) nil) (let ((newbpf (simple-bpf-from-list (quote (0.0 1.0 2.0 6.0 7.0)) (quote (0.0 0.075 0.1 0.075 0.0)) (quote bpf) 3))) (setf (bpfcolor newbpf) (om-make-color 0 0 0)) (set-name newbpf nil) newbpf)))) newobj) "x" nil (pairlis (quote (picture winpos winsize)) (list nil (om-make-point 10 40) (om-make-point 513 358))) t nil nil nil) (om-load-boxout "output" 1 (om-make-point 96 217) (quote ((om-load-inputfun (quote input-funbox) "" "out" nil))) nil nil) (om-load-tempboxout "tempout" (om-make-point 207 231) (quote ((om-load-inputfun (quote input-funbox) "out" "out" nil))) nil nil) (om-load-boxselfin "self" (om-make-point 90 50) nil))) (quote ((6 0 0 0 nil 0) (2 0 0 1 nil 0) (3 0 0 2 nil 0) (6 0 4 0 nil 0) (0 0 5 0 nil 0))) nil 6.06001))