; OM File Header - Saved 2012/07/26 11:57:43
; (6.06001 :patc (om-make-point 24 24) (om-make-point 50 50) (om-make-point 500 400) "" 183 0 nil "2012/07/26 11:57:43")
; End File Header
(in-package :om)(load-lib-for (quote ("OM-Chant")))(setf *om-current-persistent* (om-load-patch1 "traj-f0" (quote ((om-load-boxcall (quote genfun) "MAQ-F0-TRANSITION" (quote maq-f0-transition) (quote ((om-load-inputfun (quote input-funbox) "associated temporal box" "SELF" nil) (om-load-inputfun (quote input-funbox) "temporalbox which embeds the fist f0 event" "F01" nil) (om-load-inputfun (quote input-funbox) "temporalbox which embeds the second f0 event" "F02" nil) (om-load-inputfun (quote input-funbox) "trajectory profile" "PROFILE" nil))) (om-make-point 55 164) nil nil nil nil 1) (om-load-boxcomment "comment 2" (om-make-point 268 154) (quote "This patch will be used as a template for the creation of f0-modules within the maquette. This means that running the \"make-temporal-fof-f0\" function with patch feeding the \"transf0-ref\" slot will generate a maquette which f0 transitions will follow the profile defined in this patch.") "" (om-make-point 230 212) nil (om-make-color 0 0 0) (om-make-font "Verdana" 12 :family "Verdana" :style (quote (:plain)) :mode (quote nil))) (om-load-boxcomment "comment" (om-make-point 237 39) (quote "profile of the trajectory") "" (om-make-point 213 8) nil (om-make-color 0 0 0) (om-make-font "Verdana" 12 :family "Verdana" :style (quote (:plain)) :mode (quote nil))) (om-load-editor-box1 "BPF" (quote bpf) (quote ((om-load-inputfun (quote input-funbox) "object" "self" nil) (om-load-inputfun (quote input-funbox) "X coordinates (list)" "x-points" (list 0 100)) (om-load-inputfun (quote input-funbox) "Y coordinates (list)" "y-points" (list 0 100)) (om-load-inputfun (quote input-funbox) "precision (integer) [0 - 10]" "decimals" 0))) (om-make-point 177 43) (om-make-point 222 148) (let ((newobj (when (find-class (quote bpf) nil) (let ((newbpf (simple-bpf-from-list (quote (1.0 82.722 90.822 100.0)) (quote (1.0 1.002 1.012 1.0)) (quote bpf) 3))) (setf (bpfcolor newbpf) (om-make-color 0 0 0)) (set-name newbpf nil) newbpf)))) newobj) "x" nil (pairlis (quote (picture winpos winsize)) (list nil (om-make-point 10 40) (om-make-point 657 333))) t nil nil nil) (om-load-boxout "output" 1 (om-make-point 12 160) (quote ((om-load-inputfun (quote input-funbox) "" "out" nil))) nil nil) (om-load-boxin "f02" 2 (om-make-point 113 98) "" "f02" nil nil) (om-load-boxin "f01" 1 (om-make-point 66 94) "" "f01" nil nil) (om-load-tempboxout "tempout" (om-make-point 135 195) (quote ((om-load-inputfun (quote input-funbox) "out" "out" nil))) nil nil) (om-load-boxselfin "self" (om-make-point 22 37) nil))) (quote ((8 0 0 0 nil 0) (6 0 0 1 nil 0) (5 0 0 2 nil 0) (3 0 0 3 nil 0) (8 0 4 0 nil 0) (0 0 7 0 nil 0))) nil 6.06001))